<svg width="120" height="50" viewBox="0 0 120 50" fill="none" xmlns="http://www.w3.org/2000/svg">
<g filter="url(#filter0_i_36_466)">
<rect width="120" height="49.9" rx="24.95" fill="url(#paint0_linear_36_466)"/>
</g>
<path d="M68.1853 14.3524C68.4774 13.9655 69.1257 14.0711 69.2571 14.527L69.7216 16.1384C69.775 16.3237 69.9283 16.4704 70.1268 16.5262L71.8535 17.0111C72.3419 17.1483 72.4336 17.7507 72.005 18.0071L70.4901 18.9132C70.3158 19.0174 70.2122 19.1975 70.2162 19.3892L70.2506 21.0566C70.2604 21.5282 69.6687 21.7949 69.2724 21.4975L67.8717 20.4461C67.7106 20.3252 67.4933 20.2898 67.2971 20.3525L65.5918 20.898C65.1093 21.0523 64.652 20.6148 64.8357 20.1746L65.4849 18.6186C65.5596 18.4397 65.5289 18.2378 65.4037 18.0848L64.3153 16.7546C64.0074 16.3783 64.3164 15.8412 64.8262 15.8666L66.6282 15.9563C66.8355 15.9666 67.0338 15.8773 67.1526 15.72L68.1853 14.3524Z" fill="url(#paint1_linear_36_466)"/>
<path d="M54.5701 6.86922C54.6413 6.77492 54.7993 6.80066 54.8313 6.91177L54.9445 7.30452C54.9576 7.34969 54.9949 7.38544 55.0433 7.39903L55.4641 7.51723C55.5832 7.55067 55.6055 7.69749 55.5011 7.75997L55.1318 7.98082C55.0894 8.00622 55.0641 8.0501 55.0651 8.09684L55.0735 8.50321C55.0759 8.61817 54.9317 8.68318 54.8351 8.61068L54.4937 8.35442C54.4544 8.32495 54.4014 8.31632 54.3536 8.33162L53.938 8.46457C53.8204 8.50218 53.709 8.39553 53.7537 8.28825L53.912 7.90902C53.9302 7.8654 53.9227 7.81619 53.8922 7.7789L53.6269 7.4547C53.5518 7.36299 53.6272 7.23208 53.7514 7.23827L54.1906 7.26015C54.2411 7.26266 54.2895 7.24087 54.3184 7.20254L54.5701 6.86922Z" fill="url(#paint2_linear_36_466)"/>
<path d="M85.4692 18.3799C85.5429 18.1022 85.9343 18.031 86.1164 18.2622L86.7601 19.0793C86.8341 19.1733 86.9555 19.2253 87.0809 19.2167L88.1717 19.1422C88.4803 19.1211 88.6746 19.4431 88.493 19.6746L87.8508 20.4928C87.777 20.5869 87.761 20.7096 87.8086 20.8172L88.2224 21.7528C88.3395 22.0175 88.0681 22.2878 87.7737 22.1996L86.7332 21.8881C86.6135 21.8523 86.4823 21.8762 86.3862 21.9513L85.5512 22.6041C85.3149 22.7887 84.9529 22.6337 84.9526 22.3478L84.9517 21.3371C84.9516 21.2208 84.8864 21.1129 84.7795 21.0517L83.8496 20.5195C83.5865 20.369 83.6342 20.0029 83.9284 19.9143L84.9683 19.6011C85.0879 19.5651 85.1789 19.4745 85.2088 19.3616L85.4692 18.3799Z" fill="url(#paint3_linear_36_466)"/>
<path d="M97.806 11.8672C97.8472 11.7116 98.0665 11.6717 98.1684 11.8012L98.529 12.2589C98.5704 12.3115 98.6384 12.3406 98.7087 12.3358L99.3196 12.2941C99.4924 12.2823 99.6012 12.4626 99.4995 12.5923L99.1398 13.0505C99.0985 13.1032 99.0895 13.172 99.1162 13.2322L99.3479 13.7562C99.4135 13.9045 99.2615 14.0558 99.0966 14.0065L98.5139 13.832C98.4468 13.812 98.3733 13.8254 98.3196 13.8674L97.8519 14.233C97.7196 14.3364 97.5168 14.2496 97.5166 14.0895L97.5161 13.5234C97.516 13.4583 97.4796 13.3978 97.4197 13.3636L96.8989 13.0655C96.7515 12.9812 96.7782 12.7762 96.943 12.7265L97.5254 12.5511C97.5924 12.531 97.6434 12.4802 97.6601 12.417L97.806 11.8672Z" fill="url(#paint4_linear_36_466)"/>
<path d="M79.4509 5.46797C79.6502 5.38907 79.8583 5.5616 79.7949 5.75322L79.571 6.43055C79.5452 6.50846 79.5649 6.59313 79.6229 6.65443L80.1277 7.18739C80.2705 7.33817 80.1572 7.57437 79.9404 7.5779L79.1741 7.5904C79.086 7.59184 79.0049 7.63527 78.9598 7.70523L78.5672 8.31352C78.4561 8.4856 78.1781 8.45905 78.1074 8.26961L77.8578 7.60001C77.829 7.523 77.7593 7.46516 77.6733 7.4471L76.926 7.29008C76.7146 7.24566 76.6559 6.99305 76.8291 6.87244L77.4411 6.4461C77.5115 6.39707 77.5494 6.31789 77.5415 6.23677L77.4721 5.53144C77.4525 5.3319 77.6944 5.20233 77.872 5.31722L78.4999 5.72334C78.5722 5.77005 78.6654 5.77895 78.7464 5.74687L79.4509 5.46797Z" fill="url(#paint5_linear_36_466)"/>
<defs>
<filter id="filter0_i_36_466" x="0" y="0" width="120" height="53.2266" filterUnits="userSpaceOnUse" color-interpolation-filters="sRGB">
<feFlood flood-opacity="0" result="BackgroundImageFix"/>
<feBlend mode="normal" in="SourceGraphic" in2="BackgroundImageFix" result="shape"/>
<feColorMatrix in="SourceAlpha" type="matrix" values="0 0 0 0 0 0 0 0 0 0 0 0 0 0 0 0 0 0 127 0" result="hardAlpha"/>
<feMorphology radius="1.66333" operator="erode" in="SourceAlpha" result="effect1_innerShadow_36_466"/>
<feOffset dy="3.32667"/>
<feGaussianBlur stdDeviation="2.21778"/>
<feComposite in2="hardAlpha" operator="arithmetic" k2="-1" k3="1"/>
<feColorMatrix type="matrix" values="0 0 0 0 0 0 0 0 0 0 0 0 0 0 0 0 0 0 0.25 0"/>
<feBlend mode="normal" in2="shape" result="effect1_innerShadow_36_466"/>
</filter>
<linearGradient id="paint0_linear_36_466" x1="61.5" y1="1.94056" x2="60.219" y2="49.9058" gradientUnits="userSpaceOnUse">
<stop stop-color="#2B4485"/>
<stop offset="1" stop-color="#AFCAFF"/>
</linearGradient>
<linearGradient id="paint1_linear_36_466" x1="68.9246" y1="13.3733" x2="67.406" y2="22.6968" gradientUnits="userSpaceOnUse">
<stop stop-color="#ADDDFF"/>
<stop offset="1" stop-color="#EDF6FF" stop-opacity="0"/>
</linearGradient>
<linearGradient id="paint2_linear_36_466" x1="54.7503" y1="6.63059" x2="54.3802" y2="8.90299" gradientUnits="userSpaceOnUse">
<stop stop-color="#ADDDFF"/>
<stop offset="1" stop-color="#EDF6FF" stop-opacity="0"/>
</linearGradient>
<linearGradient id="paint3_linear_36_466" x1="85.6556" y1="17.6771" x2="86.6811" y2="23.313" gradientUnits="userSpaceOnUse">
<stop stop-color="#ADDDFF"/>
<stop offset="1" stop-color="#EDF6FF" stop-opacity="0"/>
</linearGradient>
<linearGradient id="paint4_linear_36_466" x1="97.9103" y1="11.4736" x2="98.4847" y2="14.6301" gradientUnits="userSpaceOnUse">
<stop stop-color="#ADDDFF"/>
<stop offset="1" stop-color="#EDF6FF" stop-opacity="0"/>
</linearGradient>
<linearGradient id="paint5_linear_36_466" x1="79.9553" y1="5.26831" x2="77.3127" y2="8.45551" gradientUnits="userSpaceOnUse">
<stop stop-color="#ADDDFF"/>
<stop offset="1" stop-color="#EDF6FF" stop-opacity="0"/>
</linearGradient>
</defs>
</svg>
