<svg width="18" height="18" viewBox="0 0 18 18" fill="none" xmlns="http://www.w3.org/2000/svg">
<path d="M2.54341 7.33341C2.40354 7.87792 2.33299 8.4379 2.33341 9.00008C2.33341 9.57508 2.40675 10.1334 2.54341 10.6667H4.91675C4.8044 9.55848 4.8044 8.44169 4.91675 7.33341H2.54341ZM3.22508 5.66675H5.18008C5.40175 4.65258 5.72175 3.74425 6.11425 2.98841C4.9044 3.57126 3.89776 4.50444 3.22508 5.66675ZM15.4567 7.33341H13.0834C13.1958 8.44169 13.1958 9.55848 13.0834 10.6667H15.4567C15.7373 9.57335 15.7373 8.42682 15.4567 7.33341ZM14.7751 5.66675C14.1024 4.50444 13.0958 3.57126 11.8859 2.98841C12.2792 3.74425 12.5984 4.65258 12.8201 5.66675H14.7751ZM6.59341 7.33341C6.53098 7.88677 6.49982 8.44321 6.50008 9.00008C6.50008 9.57091 6.53175 10.1292 6.59341 10.6667H11.4067C11.5323 9.55918 11.5323 8.44098 11.4067 7.33341H6.59341ZM6.89175 5.66675H11.1084C10.9568 5.04033 10.738 4.43209 10.4559 3.85258C9.93258 2.80675 9.37258 2.33341 9.00008 2.33341C8.62675 2.33341 8.06758 2.80675 7.54425 3.85258C7.28175 4.37925 7.06091 4.99175 6.89175 5.66675ZM3.22508 12.3334C3.89776 13.4957 4.9044 14.4289 6.11425 15.0117C5.72091 14.2559 5.40175 13.3476 5.18008 12.3334H3.22508ZM14.7751 12.3334H12.8201C12.5984 13.3476 12.2784 14.2559 11.8859 15.0117C13.0958 14.4289 14.1024 13.4957 14.7751 12.3334ZM6.89175 12.3334C7.06091 13.0084 7.28175 13.6209 7.54425 14.1476C8.06758 15.1934 8.62758 15.6667 9.00008 15.6667C9.37341 15.6667 9.93258 15.1934 10.4559 14.1476C10.7184 13.6209 10.9392 13.0084 11.1084 12.3334H6.89175ZM9.00008 17.3334C4.39758 17.3334 0.666748 13.6026 0.666748 9.00008C0.666748 4.39758 4.39758 0.666748 9.00008 0.666748C13.6026 0.666748 17.3334 4.39758 17.3334 9.00008C17.3334 13.6026 13.6026 17.3334 9.00008 17.3334Z" fill="#4A4A4A" fill-opacity="0.72"/>
</svg>
