<svg width="40" height="40" viewBox="0 0 40 40" fill="none" xmlns="http://www.w3.org/2000/svg">
<path d="M15 33.3333H10C8.23193 33.3333 6.53624 32.6309 5.286 31.3806C4.03575 30.1304 3.33337 28.4347 3.33337 26.6666V11.6666C3.33337 9.89848 4.03575 8.20278 5.286 6.95254C6.53624 5.7023 8.23193 4.99992 10 4.99992H28.3334C30.1015 4.99992 31.7972 5.7023 33.0474 6.95254C34.2977 8.20278 35 9.89848 35 11.6666V16.6666M13.3334 3.33325V6.66659M25 3.33325V6.66659M3.33337 13.3333H35M30.8334 26.0716L28.3334 28.5716" stroke="white" stroke-width="2" stroke-linecap="round" stroke-linejoin="round"/>
<path d="M28.3333 36.6667C32.9357 36.6667 36.6667 32.9357 36.6667 28.3333C36.6667 23.731 32.9357 20 28.3333 20C23.731 20 20 23.731 20 28.3333C20 32.9357 23.731 36.6667 28.3333 36.6667Z" stroke="white" stroke-width="2" stroke-linecap="round" stroke-linejoin="round"/>
</svg>
