<svg width="1096" height="815" viewBox="0 0 1096 815" fill="none" xmlns="http://www.w3.org/2000/svg">
<g filter="url(#filter0_d_103_116)">
<rect x="593" width="468" height="100" rx="6" fill="url(#paint0_linear_103_116)"/>
</g>
<rect x="625" y="27" width="250" height="16" rx="2" fill="#D8B8DC" fill-opacity="0.67"/>
<rect x="625" y="58" width="145" height="16" rx="2" fill="#D8B8DC" fill-opacity="0.67"/>
<g filter="url(#filter1_i_103_116)">
<circle cx="1002" cy="50" r="25" fill="white"/>
</g>
<g filter="url(#filter2_d_103_116)">
<rect x="119" y="170" width="728" height="100" rx="6" fill="url(#paint1_linear_103_116)"/>
</g>
<rect x="151" y="197" width="419" height="16" rx="2" fill="#D7B5DB"/>
<rect x="151" y="228" width="243.02" height="16" rx="2" fill="#D7B5DB"/>
<g filter="url(#filter3_i_103_116)">
<circle cx="781" cy="230" r="25" fill="white"/>
</g>
<g filter="url(#filter4_d_103_116)">
<rect x="468" y="340" width="499" height="100" rx="6" fill="url(#paint2_linear_103_116)"/>
</g>
<rect x="496" y="366" width="250" height="16" rx="2" fill="#D8B8DC" fill-opacity="0.67"/>
<g filter="url(#filter5_i_103_116)">
<circle cx="841" cy="399" r="25" fill="white"/>
</g>
<g filter="url(#filter6_i_103_116)">
<circle cx="902" cy="399" r="25" fill="white"/>
</g>
<path d="M505.255 413.272L502.658 410.675L501.009 412.325L505.412 416.728L512.064 408.748L510.27 407.252L505.255 413.272Z" fill="white" fill-opacity="0.8"/>
<path d="M514.667 401H498.333C497.046 401 496 402.046 496 403.333V419.667C496 420.953 497.046 422 498.333 422H514.667C515.953 422 517 420.953 517 419.667V403.333C517 402.046 515.953 401 514.667 401ZM498.333 419.667V403.333H514.667L514.669 419.667H498.333Z" fill="white" fill-opacity="0.8"/>
<path d="M531.484 407.624V412.808C531.484 413.376 531.632 413.812 531.928 414.116C532.224 414.412 532.64 414.56 533.176 414.56C533.72 414.56 534.14 414.412 534.436 414.116C534.732 413.812 534.88 413.376 534.88 412.808V407.624H536.572V412.796C536.572 413.508 536.416 414.112 536.104 414.608C535.8 415.096 535.388 415.464 534.868 415.712C534.356 415.96 533.784 416.084 533.152 416.084C532.528 416.084 531.96 415.96 531.448 415.712C530.944 415.464 530.544 415.096 530.248 414.608C529.952 414.112 529.804 413.508 529.804 412.796V407.624H531.484ZM539.875 410.312C540.091 410.008 540.387 409.756 540.763 409.556C541.147 409.348 541.583 409.244 542.071 409.244C542.639 409.244 543.151 409.384 543.607 409.664C544.071 409.944 544.435 410.344 544.699 410.864C544.971 411.376 545.107 411.972 545.107 412.652C545.107 413.332 544.971 413.936 544.699 414.464C544.435 414.984 544.071 415.388 543.607 415.676C543.151 415.964 542.639 416.108 542.071 416.108C541.583 416.108 541.151 416.008 540.775 415.808C540.407 415.608 540.107 415.356 539.875 415.052V419.168H538.195V409.352H539.875V410.312ZM543.391 412.652C543.391 412.252 543.307 411.908 543.139 411.62C542.979 411.324 542.763 411.1 542.491 410.948C542.227 410.796 541.939 410.72 541.627 410.72C541.323 410.72 541.035 410.8 540.763 410.96C540.499 411.112 540.283 411.336 540.115 411.632C539.955 411.928 539.875 412.276 539.875 412.676C539.875 413.076 539.955 413.424 540.115 413.72C540.283 414.016 540.499 414.244 540.763 414.404C541.035 414.556 541.323 414.632 541.627 414.632C541.939 414.632 542.227 414.552 542.491 414.392C542.763 414.232 542.979 414.004 543.139 413.708C543.307 413.412 543.391 413.06 543.391 412.652ZM545.896 412.676C545.896 411.988 546.036 411.388 546.316 410.876C546.596 410.356 546.984 409.956 547.48 409.676C547.976 409.388 548.544 409.244 549.184 409.244C550.008 409.244 550.688 409.452 551.224 409.868C551.768 410.276 552.132 410.852 552.316 411.596H550.504C550.408 411.308 550.244 411.084 550.012 410.924C549.788 410.756 549.508 410.672 549.172 410.672C548.692 410.672 548.312 410.848 548.032 411.2C547.752 411.544 547.612 412.036 547.612 412.676C547.612 413.308 547.752 413.8 548.032 414.152C548.312 414.496 548.692 414.668 549.172 414.668C549.852 414.668 550.296 414.364 550.504 413.756H552.316C552.132 414.476 551.768 415.048 551.224 415.472C550.68 415.896 550 416.108 549.184 416.108C548.544 416.108 547.976 415.968 547.48 415.688C546.984 415.4 546.596 415 546.316 414.488C546.036 413.968 545.896 413.364 545.896 412.676ZM556.499 416.108C555.859 416.108 555.283 415.968 554.771 415.688C554.259 415.4 553.855 414.996 553.559 414.476C553.271 413.956 553.127 413.356 553.127 412.676C553.127 411.996 553.275 411.396 553.571 410.876C553.875 410.356 554.287 409.956 554.807 409.676C555.327 409.388 555.907 409.244 556.547 409.244C557.187 409.244 557.767 409.388 558.287 409.676C558.807 409.956 559.215 410.356 559.511 410.876C559.815 411.396 559.967 411.996 559.967 412.676C559.967 413.356 559.811 413.956 559.499 414.476C559.195 414.996 558.779 415.4 558.251 415.688C557.731 415.968 557.147 416.108 556.499 416.108ZM556.499 414.644C556.803 414.644 557.087 414.572 557.351 414.428C557.623 414.276 557.839 414.052 557.999 413.756C558.159 413.46 558.239 413.1 558.239 412.676C558.239 412.044 558.071 411.56 557.735 411.224C557.407 410.88 557.003 410.708 556.523 410.708C556.043 410.708 555.639 410.88 555.311 411.224C554.991 411.56 554.831 412.044 554.831 412.676C554.831 413.308 554.987 413.796 555.299 414.14C555.619 414.476 556.019 414.644 556.499 414.644ZM569.455 409.256C570.271 409.256 570.927 409.508 571.423 410.012C571.927 410.508 572.179 411.204 572.179 412.1V416H570.499V412.328C570.499 411.808 570.367 411.412 570.103 411.14C569.839 410.86 569.479 410.72 569.023 410.72C568.567 410.72 568.203 410.86 567.931 411.14C567.667 411.412 567.535 411.808 567.535 412.328V416H565.855V412.328C565.855 411.808 565.723 411.412 565.459 411.14C565.195 410.86 564.835 410.72 564.379 410.72C563.915 410.72 563.547 410.86 563.275 411.14C563.011 411.412 562.879 411.808 562.879 412.328V416H561.199V409.352H562.879V410.156C563.095 409.876 563.371 409.656 563.707 409.496C564.051 409.336 564.427 409.256 564.835 409.256C565.355 409.256 565.819 409.368 566.227 409.592C566.635 409.808 566.951 410.12 567.175 410.528C567.391 410.144 567.703 409.836 568.111 409.604C568.527 409.372 568.975 409.256 569.455 409.256ZM574.625 408.56C574.329 408.56 574.081 408.468 573.881 408.284C573.689 408.092 573.593 407.856 573.593 407.576C573.593 407.296 573.689 407.064 573.881 406.88C574.081 406.688 574.329 406.592 574.625 406.592C574.921 406.592 575.165 406.688 575.357 406.88C575.557 407.064 575.657 407.296 575.657 407.576C575.657 407.856 575.557 408.092 575.357 408.284C575.165 408.468 574.921 408.56 574.625 408.56ZM575.453 409.352V416H573.773V409.352H575.453ZM580.797 409.256C581.589 409.256 582.229 409.508 582.717 410.012C583.205 410.508 583.449 411.204 583.449 412.1V416H581.769V412.328C581.769 411.8 581.637 411.396 581.373 411.116C581.109 410.828 580.749 410.684 580.293 410.684C579.829 410.684 579.461 410.828 579.189 411.116C578.925 411.396 578.793 411.8 578.793 412.328V416H577.113V409.352H578.793V410.18C579.017 409.892 579.301 409.668 579.645 409.508C579.997 409.34 580.381 409.256 580.797 409.256ZM587.651 409.244C588.147 409.244 588.583 409.344 588.959 409.544C589.335 409.736 589.631 409.988 589.847 410.3V409.352H591.539V416.048C591.539 416.664 591.415 417.212 591.167 417.692C590.919 418.18 590.547 418.564 590.051 418.844C589.555 419.132 588.955 419.276 588.251 419.276C587.307 419.276 586.531 419.056 585.923 418.616C585.323 418.176 584.983 417.576 584.903 416.816H586.571C586.659 417.12 586.847 417.36 587.135 417.536C587.431 417.72 587.787 417.812 588.203 417.812C588.691 417.812 589.087 417.664 589.391 417.368C589.695 417.08 589.847 416.64 589.847 416.048V415.016C589.631 415.328 589.331 415.588 588.947 415.796C588.571 416.004 588.139 416.108 587.651 416.108C587.091 416.108 586.579 415.964 586.115 415.676C585.651 415.388 585.283 414.984 585.011 414.464C584.747 413.936 584.615 413.332 584.615 412.652C584.615 411.98 584.747 411.384 585.011 410.864C585.283 410.344 585.647 409.944 586.103 409.664C586.567 409.384 587.083 409.244 587.651 409.244ZM589.847 412.676C589.847 412.268 589.767 411.92 589.607 411.632C589.447 411.336 589.231 411.112 588.959 410.96C588.687 410.8 588.395 410.72 588.083 410.72C587.771 410.72 587.483 410.796 587.219 410.948C586.955 411.1 586.739 411.324 586.571 411.62C586.411 411.908 586.331 412.252 586.331 412.652C586.331 413.052 586.411 413.404 586.571 413.708C586.739 414.004 586.955 414.232 587.219 414.392C587.491 414.552 587.779 414.632 588.083 414.632C588.395 414.632 588.687 414.556 588.959 414.404C589.231 414.244 589.447 414.02 589.607 413.732C589.767 413.436 589.847 413.084 589.847 412.676Z" fill="white" fill-opacity="0.6"/>
<g filter="url(#filter7_d_103_116)">
<rect y="510" width="468" height="100" rx="6" fill="url(#paint3_linear_103_116)"/>
</g>
<rect x="23" y="534" width="250" height="16" rx="2" fill="#D8B8DC" fill-opacity="0.67"/>
<g filter="url(#filter8_i_103_116)">
<circle cx="404" cy="567" r="25" fill="white"/>
</g>
<path d="M32.2552 577.272L29.6582 574.675L28.0085 576.325L32.4115 580.728L39.0639 572.748L37.2695 571.252L32.2552 577.272Z" fill="white" fill-opacity="0.8"/>
<path d="M41.6667 565H25.3333C24.0465 565 23 566.046 23 567.333V583.667C23 584.953 24.0465 586 25.3333 586H41.6667C42.9535 586 44 584.953 44 583.667V567.333C44 566.046 42.9535 565 41.6667 565ZM25.3333 583.667V567.333H41.6667L41.669 583.667H25.3333Z" fill="white" fill-opacity="0.8"/>
<path d="M56.508 571.624V580H54.828V571.624H56.508ZM61.8518 573.256C62.6438 573.256 63.2838 573.508 63.7718 574.012C64.2598 574.508 64.5038 575.204 64.5038 576.1V580H62.8238V576.328C62.8238 575.8 62.6918 575.396 62.4278 575.116C62.1638 574.828 61.8038 574.684 61.3478 574.684C60.8838 574.684 60.5158 574.828 60.2438 575.116C59.9798 575.396 59.8478 575.8 59.8478 576.328V580H58.1678V573.352H59.8478V574.18C60.0718 573.892 60.3558 573.668 60.6998 573.508C61.0518 573.34 61.4358 573.256 61.8518 573.256ZM75.0688 574.216C75.0688 574.664 74.9608 575.084 74.7448 575.476C74.5368 575.868 74.2048 576.184 73.7488 576.424C73.3008 576.664 72.7328 576.784 72.0448 576.784H70.6408V580H68.9608V571.624H72.0448C72.6928 571.624 73.2448 571.736 73.7008 571.96C74.1568 572.184 74.4968 572.492 74.7208 572.884C74.9528 573.276 75.0688 573.72 75.0688 574.216ZM71.9728 575.428C72.4368 575.428 72.7808 575.324 73.0048 575.116C73.2288 574.9 73.3408 574.6 73.3408 574.216C73.3408 573.4 72.8848 572.992 71.9728 572.992H70.6408V575.428H71.9728ZM77.9416 574.384C78.1576 574.032 78.4376 573.756 78.7816 573.556C79.1336 573.356 79.5336 573.256 79.9816 573.256V575.02H79.5376C79.0096 575.02 78.6096 575.144 78.3376 575.392C78.0736 575.64 77.9416 576.072 77.9416 576.688V580H76.2616V573.352H77.9416V574.384ZM84.0652 580.108C83.4252 580.108 82.8492 579.968 82.3372 579.688C81.8252 579.4 81.4212 578.996 81.1252 578.476C80.8372 577.956 80.6932 577.356 80.6932 576.676C80.6932 575.996 80.8412 575.396 81.1372 574.876C81.4412 574.356 81.8532 573.956 82.3732 573.676C82.8932 573.388 83.4732 573.244 84.1132 573.244C84.7532 573.244 85.3332 573.388 85.8532 573.676C86.3732 573.956 86.7812 574.356 87.0772 574.876C87.3812 575.396 87.5332 575.996 87.5332 576.676C87.5332 577.356 87.3772 577.956 87.0652 578.476C86.7612 578.996 86.3452 579.4 85.8172 579.688C85.2972 579.968 84.7132 580.108 84.0652 580.108ZM84.0652 578.644C84.3692 578.644 84.6532 578.572 84.9172 578.428C85.1892 578.276 85.4052 578.052 85.5652 577.756C85.7252 577.46 85.8052 577.1 85.8052 576.676C85.8052 576.044 85.6372 575.56 85.3012 575.224C84.9732 574.88 84.5692 574.708 84.0892 574.708C83.6092 574.708 83.2052 574.88 82.8772 575.224C82.5572 575.56 82.3972 576.044 82.3972 576.676C82.3972 577.308 82.5532 577.796 82.8652 578.14C83.1852 578.476 83.5852 578.644 84.0652 578.644ZM91.3695 573.244C91.8655 573.244 92.3015 573.344 92.6775 573.544C93.0535 573.736 93.3495 573.988 93.5655 574.3V573.352H95.2575V580.048C95.2575 580.664 95.1335 581.212 94.8855 581.692C94.6375 582.18 94.2655 582.564 93.7695 582.844C93.2735 583.132 92.6735 583.276 91.9695 583.276C91.0255 583.276 90.2495 583.056 89.6415 582.616C89.0415 582.176 88.7015 581.576 88.6215 580.816H90.2895C90.3775 581.12 90.5655 581.36 90.8535 581.536C91.1495 581.72 91.5055 581.812 91.9215 581.812C92.4095 581.812 92.8055 581.664 93.1095 581.368C93.4135 581.08 93.5655 580.64 93.5655 580.048V579.016C93.3495 579.328 93.0495 579.588 92.6655 579.796C92.2895 580.004 91.8575 580.108 91.3695 580.108C90.8095 580.108 90.2975 579.964 89.8335 579.676C89.3695 579.388 89.0015 578.984 88.7295 578.464C88.4655 577.936 88.3335 577.332 88.3335 576.652C88.3335 575.98 88.4655 575.384 88.7295 574.864C89.0015 574.344 89.3655 573.944 89.8215 573.664C90.2855 573.384 90.8015 573.244 91.3695 573.244ZM93.5655 576.676C93.5655 576.268 93.4855 575.92 93.3255 575.632C93.1655 575.336 92.9495 575.112 92.6775 574.96C92.4055 574.8 92.1135 574.72 91.8015 574.72C91.4895 574.72 91.2015 574.796 90.9375 574.948C90.6735 575.1 90.4575 575.324 90.2895 575.62C90.1295 575.908 90.0495 576.252 90.0495 576.652C90.0495 577.052 90.1295 577.404 90.2895 577.708C90.4575 578.004 90.6735 578.232 90.9375 578.392C91.2095 578.552 91.4975 578.632 91.8015 578.632C92.1135 578.632 92.4055 578.556 92.6775 578.404C92.9495 578.244 93.1655 578.02 93.3255 577.732C93.4855 577.436 93.5655 577.084 93.5655 576.676ZM98.5783 574.384C98.7943 574.032 99.0743 573.756 99.4183 573.556C99.7703 573.356 100.17 573.256 100.618 573.256V575.02H100.174C99.6463 575.02 99.2463 575.144 98.9743 575.392C98.7103 575.64 98.5783 576.072 98.5783 576.688V580H96.8983V573.352H98.5783V574.384ZM107.93 576.532C107.93 576.772 107.914 576.988 107.882 577.18H103.022C103.062 577.66 103.23 578.036 103.526 578.308C103.822 578.58 104.186 578.716 104.618 578.716C105.242 578.716 105.686 578.448 105.95 577.912H107.762C107.57 578.552 107.202 579.08 106.658 579.496C106.114 579.904 105.446 580.108 104.654 580.108C104.014 580.108 103.438 579.968 102.926 579.688C102.422 579.4 102.026 578.996 101.738 578.476C101.458 577.956 101.318 577.356 101.318 576.676C101.318 575.988 101.458 575.384 101.738 574.864C102.018 574.344 102.41 573.944 102.914 573.664C103.418 573.384 103.998 573.244 104.654 573.244C105.286 573.244 105.85 573.38 106.346 573.652C106.85 573.924 107.238 574.312 107.51 574.816C107.79 575.312 107.93 575.884 107.93 576.532ZM106.19 576.052C106.182 575.62 106.026 575.276 105.722 575.02C105.418 574.756 105.046 574.624 104.606 574.624C104.19 574.624 103.838 574.752 103.55 575.008C103.27 575.256 103.098 575.604 103.034 576.052H106.19ZM111.7 580.108C111.156 580.108 110.668 580.012 110.236 579.82C109.804 579.62 109.46 579.352 109.204 579.016C108.956 578.68 108.82 578.308 108.796 577.9H110.488C110.52 578.156 110.644 578.368 110.86 578.536C111.084 578.704 111.36 578.788 111.688 578.788C112.008 578.788 112.256 578.724 112.432 578.596C112.616 578.468 112.708 578.304 112.708 578.104C112.708 577.888 112.596 577.728 112.372 577.624C112.156 577.512 111.808 577.392 111.328 577.264C110.832 577.144 110.424 577.02 110.104 576.892C109.792 576.764 109.52 576.568 109.288 576.304C109.064 576.04 108.952 575.684 108.952 575.236C108.952 574.868 109.056 574.532 109.264 574.228C109.48 573.924 109.784 573.684 110.176 573.508C110.576 573.332 111.044 573.244 111.58 573.244C112.372 573.244 113.004 573.444 113.476 573.844C113.948 574.236 114.208 574.768 114.256 575.44H112.648C112.624 575.176 112.512 574.968 112.312 574.816C112.12 574.656 111.86 574.576 111.532 574.576C111.228 574.576 110.992 574.632 110.824 574.744C110.664 574.856 110.584 575.012 110.584 575.212C110.584 575.436 110.696 575.608 110.92 575.728C111.144 575.84 111.492 575.956 111.964 576.076C112.444 576.196 112.84 576.32 113.152 576.448C113.464 576.576 113.732 576.776 113.956 577.048C114.188 577.312 114.308 577.664 114.316 578.104C114.316 578.488 114.208 578.832 113.992 579.136C113.784 579.44 113.48 579.68 113.08 579.856C112.688 580.024 112.228 580.108 111.7 580.108ZM118.239 580.108C117.695 580.108 117.207 580.012 116.775 579.82C116.343 579.62 115.999 579.352 115.743 579.016C115.495 578.68 115.359 578.308 115.335 577.9H117.027C117.059 578.156 117.183 578.368 117.399 578.536C117.623 578.704 117.899 578.788 118.227 578.788C118.547 578.788 118.795 578.724 118.971 578.596C119.155 578.468 119.247 578.304 119.247 578.104C119.247 577.888 119.135 577.728 118.911 577.624C118.695 577.512 118.347 577.392 117.867 577.264C117.371 577.144 116.963 577.02 116.643 576.892C116.331 576.764 116.059 576.568 115.827 576.304C115.603 576.04 115.491 575.684 115.491 575.236C115.491 574.868 115.595 574.532 115.803 574.228C116.019 573.924 116.323 573.684 116.715 573.508C117.115 573.332 117.583 573.244 118.119 573.244C118.911 573.244 119.543 573.444 120.015 573.844C120.487 574.236 120.747 574.768 120.795 575.44H119.187C119.163 575.176 119.051 574.968 118.851 574.816C118.659 574.656 118.399 574.576 118.071 574.576C117.767 574.576 117.531 574.632 117.363 574.744C117.203 574.856 117.123 575.012 117.123 575.212C117.123 575.436 117.235 575.608 117.459 575.728C117.683 575.84 118.031 575.956 118.503 576.076C118.983 576.196 119.379 576.32 119.691 576.448C120.003 576.576 120.271 576.776 120.495 577.048C120.727 577.312 120.847 577.664 120.855 578.104C120.855 578.488 120.747 578.832 120.531 579.136C120.323 579.44 120.019 579.68 119.619 579.856C119.227 580.024 118.767 580.108 118.239 580.108ZM130.857 582.364C130.081 581.612 129.477 580.652 129.045 579.484C128.621 578.316 128.409 577.064 128.409 575.728C128.409 574.36 128.633 573.076 129.081 571.876C129.529 570.668 130.181 569.68 131.037 568.912H132.729V569.068C131.849 569.908 131.177 570.916 130.713 572.092C130.257 573.268 130.029 574.48 130.029 575.728C130.029 576.944 130.245 578.12 130.677 579.256C131.117 580.384 131.741 581.364 132.549 582.196V582.364H130.857ZM133.609 573.556C133.649 572.756 133.929 572.14 134.449 571.708C134.977 571.268 135.669 571.048 136.525 571.048C137.109 571.048 137.609 571.152 138.025 571.36C138.441 571.56 138.753 571.836 138.961 572.188C139.177 572.532 139.285 572.924 139.285 573.364C139.285 573.868 139.153 574.296 138.889 574.648C138.633 574.992 138.325 575.224 137.965 575.344V575.392C138.429 575.536 138.789 575.792 139.045 576.16C139.309 576.528 139.441 577 139.441 577.576C139.441 578.056 139.329 578.484 139.105 578.86C138.889 579.236 138.565 579.532 138.133 579.748C137.709 579.956 137.197 580.06 136.597 580.06C135.693 580.06 134.957 579.832 134.389 579.376C133.821 578.92 133.521 578.248 133.489 577.36H135.121C135.137 577.752 135.269 578.068 135.517 578.308C135.773 578.54 136.121 578.656 136.561 578.656C136.969 578.656 137.281 578.544 137.497 578.32C137.721 578.088 137.833 577.792 137.833 577.432C137.833 576.952 137.681 576.608 137.377 576.4C137.073 576.192 136.601 576.088 135.961 576.088H135.613V574.708H135.961C137.097 574.708 137.665 574.328 137.665 573.568C137.665 573.224 137.561 572.956 137.353 572.764C137.153 572.572 136.861 572.476 136.477 572.476C136.101 572.476 135.809 572.58 135.601 572.788C135.401 572.988 135.285 573.244 135.253 573.556H133.609ZM145.461 568.636L142.221 582.172H140.577L143.817 568.636H145.461ZM152.173 572.524L148.981 580H147.277L150.493 572.716H146.389V571.276H152.173V572.524ZM152.939 582.364V582.196C153.747 581.364 154.367 580.384 154.799 579.256C155.239 578.12 155.459 576.944 155.459 575.728C155.459 574.48 155.227 573.268 154.763 572.092C154.307 570.916 153.639 569.908 152.759 569.068V568.912H154.451C155.307 569.68 155.959 570.668 156.407 571.876C156.855 573.076 157.079 574.36 157.079 575.728C157.079 577.064 156.863 578.316 156.431 579.484C156.007 580.652 155.407 581.612 154.631 582.364H152.939Z" fill="white" fill-opacity="0.6"/>
<g filter="url(#filter9_d_103_116)">
<rect x="413" y="680" width="610" height="100" rx="6" fill="url(#paint4_linear_103_116)"/>
</g>
<rect x="445" y="707" width="402" height="16" rx="2" fill="#D8B8DC" fill-opacity="0.4"/>
<rect x="445" y="738" width="233.16" height="16" rx="2" fill="#D8B8DC" fill-opacity="0.4"/>
<g filter="url(#filter10_i_103_116)">
<circle cx="968" cy="738" r="25" fill="white"/>
</g>
<defs>
<filter id="filter0_d_103_116" x="593" y="0" width="503" height="135" filterUnits="userSpaceOnUse" color-interpolation-filters="sRGB">
<feFlood flood-opacity="0" result="BackgroundImageFix"/>
<feColorMatrix in="SourceAlpha" type="matrix" values="0 0 0 0 0 0 0 0 0 0 0 0 0 0 0 0 0 0 127 0" result="hardAlpha"/>
<feOffset dx="20" dy="20"/>
<feGaussianBlur stdDeviation="7.5"/>
<feComposite in2="hardAlpha" operator="out"/>
<feColorMatrix type="matrix" values="0 0 0 0 0.890196 0 0 0 0 0.87451 0 0 0 0 0.980392 0 0 0 0.6 0"/>
<feBlend mode="normal" in2="BackgroundImageFix" result="effect1_dropShadow_103_116"/>
<feBlend mode="normal" in="SourceGraphic" in2="effect1_dropShadow_103_116" result="shape"/>
</filter>
<filter id="filter1_i_103_116" x="973" y="21" width="54" height="54" filterUnits="userSpaceOnUse" color-interpolation-filters="sRGB">
<feFlood flood-opacity="0" result="BackgroundImageFix"/>
<feBlend mode="normal" in="SourceGraphic" in2="BackgroundImageFix" result="shape"/>
<feColorMatrix in="SourceAlpha" type="matrix" values="0 0 0 0 0 0 0 0 0 0 0 0 0 0 0 0 0 0 127 0" result="hardAlpha"/>
<feOffset dx="-4" dy="-4"/>
<feGaussianBlur stdDeviation="5"/>
<feComposite in2="hardAlpha" operator="arithmetic" k2="-1" k3="1"/>
<feColorMatrix type="matrix" values="0 0 0 0 0.291667 0 0 0 0 0.291667 0 0 0 0 0.291667 0 0 0 0.2 0"/>
<feBlend mode="normal" in2="shape" result="effect1_innerShadow_103_116"/>
</filter>
<filter id="filter2_d_103_116" x="119" y="170" width="763" height="135" filterUnits="userSpaceOnUse" color-interpolation-filters="sRGB">
<feFlood flood-opacity="0" result="BackgroundImageFix"/>
<feColorMatrix in="SourceAlpha" type="matrix" values="0 0 0 0 0 0 0 0 0 0 0 0 0 0 0 0 0 0 127 0" result="hardAlpha"/>
<feOffset dx="20" dy="20"/>
<feGaussianBlur stdDeviation="7.5"/>
<feComposite in2="hardAlpha" operator="out"/>
<feColorMatrix type="matrix" values="0 0 0 0 0.890196 0 0 0 0 0.87451 0 0 0 0 0.980392 0 0 0 0.6 0"/>
<feBlend mode="normal" in2="BackgroundImageFix" result="effect1_dropShadow_103_116"/>
<feBlend mode="normal" in="SourceGraphic" in2="effect1_dropShadow_103_116" result="shape"/>
</filter>
<filter id="filter3_i_103_116" x="752" y="201" width="54" height="54" filterUnits="userSpaceOnUse" color-interpolation-filters="sRGB">
<feFlood flood-opacity="0" result="BackgroundImageFix"/>
<feBlend mode="normal" in="SourceGraphic" in2="BackgroundImageFix" result="shape"/>
<feColorMatrix in="SourceAlpha" type="matrix" values="0 0 0 0 0 0 0 0 0 0 0 0 0 0 0 0 0 0 127 0" result="hardAlpha"/>
<feOffset dx="-4" dy="-4"/>
<feGaussianBlur stdDeviation="5"/>
<feComposite in2="hardAlpha" operator="arithmetic" k2="-1" k3="1"/>
<feColorMatrix type="matrix" values="0 0 0 0 0.291667 0 0 0 0 0.291667 0 0 0 0 0.291667 0 0 0 0.2 0"/>
<feBlend mode="normal" in2="shape" result="effect1_innerShadow_103_116"/>
</filter>
<filter id="filter4_d_103_116" x="468" y="340" width="534" height="135" filterUnits="userSpaceOnUse" color-interpolation-filters="sRGB">
<feFlood flood-opacity="0" result="BackgroundImageFix"/>
<feColorMatrix in="SourceAlpha" type="matrix" values="0 0 0 0 0 0 0 0 0 0 0 0 0 0 0 0 0 0 127 0" result="hardAlpha"/>
<feOffset dx="20" dy="20"/>
<feGaussianBlur stdDeviation="7.5"/>
<feComposite in2="hardAlpha" operator="out"/>
<feColorMatrix type="matrix" values="0 0 0 0 0.890196 0 0 0 0 0.87451 0 0 0 0 0.980392 0 0 0 0.6 0"/>
<feBlend mode="normal" in2="BackgroundImageFix" result="effect1_dropShadow_103_116"/>
<feBlend mode="normal" in="SourceGraphic" in2="effect1_dropShadow_103_116" result="shape"/>
</filter>
<filter id="filter5_i_103_116" x="812" y="370" width="54" height="54" filterUnits="userSpaceOnUse" color-interpolation-filters="sRGB">
<feFlood flood-opacity="0" result="BackgroundImageFix"/>
<feBlend mode="normal" in="SourceGraphic" in2="BackgroundImageFix" result="shape"/>
<feColorMatrix in="SourceAlpha" type="matrix" values="0 0 0 0 0 0 0 0 0 0 0 0 0 0 0 0 0 0 127 0" result="hardAlpha"/>
<feOffset dx="-4" dy="-4"/>
<feGaussianBlur stdDeviation="5"/>
<feComposite in2="hardAlpha" operator="arithmetic" k2="-1" k3="1"/>
<feColorMatrix type="matrix" values="0 0 0 0 0.291667 0 0 0 0 0.291667 0 0 0 0 0.291667 0 0 0 0.2 0"/>
<feBlend mode="normal" in2="shape" result="effect1_innerShadow_103_116"/>
</filter>
<filter id="filter6_i_103_116" x="873" y="370" width="54" height="54" filterUnits="userSpaceOnUse" color-interpolation-filters="sRGB">
<feFlood flood-opacity="0" result="BackgroundImageFix"/>
<feBlend mode="normal" in="SourceGraphic" in2="BackgroundImageFix" result="shape"/>
<feColorMatrix in="SourceAlpha" type="matrix" values="0 0 0 0 0 0 0 0 0 0 0 0 0 0 0 0 0 0 127 0" result="hardAlpha"/>
<feOffset dx="-4" dy="-4"/>
<feGaussianBlur stdDeviation="5"/>
<feComposite in2="hardAlpha" operator="arithmetic" k2="-1" k3="1"/>
<feColorMatrix type="matrix" values="0 0 0 0 0.291667 0 0 0 0 0.291667 0 0 0 0 0.291667 0 0 0 0.2 0"/>
<feBlend mode="normal" in2="shape" result="effect1_innerShadow_103_116"/>
</filter>
<filter id="filter7_d_103_116" x="0" y="510" width="503" height="135" filterUnits="userSpaceOnUse" color-interpolation-filters="sRGB">
<feFlood flood-opacity="0" result="BackgroundImageFix"/>
<feColorMatrix in="SourceAlpha" type="matrix" values="0 0 0 0 0 0 0 0 0 0 0 0 0 0 0 0 0 0 127 0" result="hardAlpha"/>
<feOffset dx="20" dy="20"/>
<feGaussianBlur stdDeviation="7.5"/>
<feComposite in2="hardAlpha" operator="out"/>
<feColorMatrix type="matrix" values="0 0 0 0 0.890196 0 0 0 0 0.87451 0 0 0 0 0.980392 0 0 0 0.6 0"/>
<feBlend mode="normal" in2="BackgroundImageFix" result="effect1_dropShadow_103_116"/>
<feBlend mode="normal" in="SourceGraphic" in2="effect1_dropShadow_103_116" result="shape"/>
</filter>
<filter id="filter8_i_103_116" x="375" y="538" width="54" height="54" filterUnits="userSpaceOnUse" color-interpolation-filters="sRGB">
<feFlood flood-opacity="0" result="BackgroundImageFix"/>
<feBlend mode="normal" in="SourceGraphic" in2="BackgroundImageFix" result="shape"/>
<feColorMatrix in="SourceAlpha" type="matrix" values="0 0 0 0 0 0 0 0 0 0 0 0 0 0 0 0 0 0 127 0" result="hardAlpha"/>
<feOffset dx="-4" dy="-4"/>
<feGaussianBlur stdDeviation="5"/>
<feComposite in2="hardAlpha" operator="arithmetic" k2="-1" k3="1"/>
<feColorMatrix type="matrix" values="0 0 0 0 0.291667 0 0 0 0 0.291667 0 0 0 0 0.291667 0 0 0 0.2 0"/>
<feBlend mode="normal" in2="shape" result="effect1_innerShadow_103_116"/>
</filter>
<filter id="filter9_d_103_116" x="413" y="680" width="645" height="135" filterUnits="userSpaceOnUse" color-interpolation-filters="sRGB">
<feFlood flood-opacity="0" result="BackgroundImageFix"/>
<feColorMatrix in="SourceAlpha" type="matrix" values="0 0 0 0 0 0 0 0 0 0 0 0 0 0 0 0 0 0 127 0" result="hardAlpha"/>
<feOffset dx="20" dy="20"/>
<feGaussianBlur stdDeviation="7.5"/>
<feComposite in2="hardAlpha" operator="out"/>
<feColorMatrix type="matrix" values="0 0 0 0 0.890196 0 0 0 0 0.87451 0 0 0 0 0.980392 0 0 0 0.6 0"/>
<feBlend mode="normal" in2="BackgroundImageFix" result="effect1_dropShadow_103_116"/>
<feBlend mode="normal" in="SourceGraphic" in2="effect1_dropShadow_103_116" result="shape"/>
</filter>
<filter id="filter10_i_103_116" x="939" y="709" width="54" height="54" filterUnits="userSpaceOnUse" color-interpolation-filters="sRGB">
<feFlood flood-opacity="0" result="BackgroundImageFix"/>
<feBlend mode="normal" in="SourceGraphic" in2="BackgroundImageFix" result="shape"/>
<feColorMatrix in="SourceAlpha" type="matrix" values="0 0 0 0 0 0 0 0 0 0 0 0 0 0 0 0 0 0 127 0" result="hardAlpha"/>
<feOffset dx="-4" dy="-4"/>
<feGaussianBlur stdDeviation="5"/>
<feComposite in2="hardAlpha" operator="arithmetic" k2="-1" k3="1"/>
<feColorMatrix type="matrix" values="0 0 0 0 0.291667 0 0 0 0 0.291667 0 0 0 0 0.291667 0 0 0 0.2 0"/>
<feBlend mode="normal" in2="shape" result="effect1_innerShadow_103_116"/>
</filter>
<linearGradient id="paint0_linear_103_116" x1="1061" y1="-8.26661e-06" x2="520.837" y2="136.181" gradientUnits="userSpaceOnUse">
<stop stop-color="#FFF9E4"/>
<stop offset="1" stop-color="#F4B3DC"/>
</linearGradient>
<linearGradient id="paint1_linear_103_116" x1="847" y1="170" x2="72.4641" y2="473.752" gradientUnits="userSpaceOnUse">
<stop stop-color="#F3C8E8"/>
<stop offset="1" stop-color="#BFB7ED"/>
</linearGradient>
<linearGradient id="paint2_linear_103_116" x1="1065" y1="326" x2="476.876" y2="475.027" gradientUnits="userSpaceOnUse">
<stop stop-color="#F3C8E8"/>
<stop offset="0.0001" stop-color="#6459BA"/>
<stop offset="1" stop-color="#E59ED7"/>
</linearGradient>
<linearGradient id="paint3_linear_103_116" x1="468" y1="510" x2="-72.1625" y2="646.181" gradientUnits="userSpaceOnUse">
<stop stop-color="#F5D395"/>
<stop offset="1" stop-color="#E76FBB"/>
</linearGradient>
<linearGradient id="paint4_linear_103_116" x1="1023" y1="680" x2="347.17" y2="902.082" gradientUnits="userSpaceOnUse">
<stop stop-color="#FEFEFF"/>
<stop offset="1" stop-color="#E9E5FF"/>
</linearGradient>
</defs>
</svg>
