<svg width="421" height="764" viewBox="0 0 421 764" fill="none" xmlns="http://www.w3.org/2000/svg">
<rect x="17.9998" y="563.837" width="57.1581" height="25.8133" rx="12.9067" transform="rotate(-40.01 17.9998 563.837)" fill="#CAE5FF"/>
<path d="M40.103 567.571L41.1843 566.663L36.1196 560.63L38.3062 558.794L37.5242 557.863L32.0649 562.445L32.8469 563.377L35.0384 561.537L40.103 567.571ZM44.088 564.226L45.1355 563.347L42.5059 560.214C41.8698 559.456 42.002 558.506 42.8032 557.833C43.0011 557.667 43.2 557.541 43.4207 557.422L42.6103 556.457C42.4839 556.522 42.2802 556.651 42.1112 556.793C41.4113 557.381 41.1993 558.118 41.477 558.831L41.3998 558.896L40.7353 558.105L39.6879 558.984L44.088 564.226ZM43.5819 554.119C43.9391 553.819 43.9912 553.273 43.6914 552.916C43.3875 552.554 42.8411 552.511 42.4839 552.811C42.1219 553.115 42.0746 553.656 42.3785 554.018C42.6783 554.376 43.2199 554.423 43.5819 554.119ZM48.242 560.739L49.2846 559.864L44.8844 554.622L43.8418 555.497L48.242 560.739ZM52.4297 557.224L53.5448 556.288L51.0367 549.458L49.9362 550.381L52.1417 555.655L52.0597 555.724L47.2427 552.642L46.1325 553.574L52.4297 557.224ZM52.025 547.032C52.3822 546.732 52.4343 546.186 52.1344 545.829C51.8306 545.467 51.2841 545.424 50.9269 545.724C50.5649 546.028 50.5176 546.569 50.8215 546.931C51.1213 547.288 51.6629 547.336 52.025 547.032ZM56.685 553.652L57.7277 552.777L53.3275 547.535L52.2849 548.41L56.685 553.652ZM60.9409 550.228C61.636 549.644 61.935 548.883 61.7983 548.093L61.8803 548.024L62.5043 548.767L63.5421 547.896L60.5317 544.31C59.6079 543.209 58.3135 543.177 56.9957 544.283C55.8034 545.284 55.4602 546.551 56.0559 547.515L56.0794 547.553L57.0883 546.706L57.0769 546.683C56.8904 546.206 57.0935 545.674 57.6727 545.187C58.3823 544.592 59.0117 544.606 59.4939 545.181L59.8828 545.644L58.5326 546.918C57.3472 548.044 57.1003 549.181 57.8864 550.118L57.8945 550.127C58.6927 551.078 59.9417 551.066 60.9409 550.228ZM58.9006 549.209L58.8925 549.199C58.4955 548.726 58.6049 548.19 59.2925 547.539L60.5027 546.383L60.8795 546.832C61.4468 547.507 61.3019 548.501 60.5199 549.158C59.9551 549.632 59.3058 549.691 58.9006 549.209Z" fill="white"/>
<rect x="115.225" y="300.474" width="70.9866" height="25.8133" rx="12.9067" transform="rotate(44.8554 115.225 300.474)" fill="#DEEFFF"/>
<path d="M112.054 321.399L114.703 324.035C116.079 325.404 117.59 325.539 118.715 324.408L118.724 324.4C119.56 323.56 119.592 322.365 118.814 321.405L118.89 321.329C119.631 321.853 120.727 321.743 121.394 321.073L121.403 321.064C122.385 320.077 122.27 318.736 121.059 317.531L118.468 314.953L112.054 321.399ZM120.014 318.117C120.755 318.855 120.838 319.639 120.233 320.247L120.224 320.256C119.602 320.881 118.813 320.754 117.928 319.874L116.74 318.692L118.656 316.766L120.014 318.117ZM117.369 320.838C118.312 321.776 118.452 322.627 117.763 323.319L117.754 323.328C117.065 324.02 116.218 323.916 115.316 323.018L113.868 321.578L115.98 319.456L117.369 320.838ZM118.289 327.603L119.258 328.567L125.979 321.813L125.01 320.848L118.289 327.603ZM122.826 332.304C124.247 333.718 126.065 333.633 127.621 332.069L127.63 332.06C129.185 330.497 129.257 328.674 127.84 327.265C126.42 325.851 124.593 325.936 123.042 327.495L123.033 327.504C121.477 329.068 121.401 330.886 122.826 332.304ZM123.631 331.496C122.796 330.664 122.953 329.568 124.024 328.491L124.033 328.482C125.105 327.405 126.2 327.242 127.036 328.073C127.867 328.9 127.714 330.001 126.642 331.078L126.633 331.087C125.567 332.159 124.462 332.322 123.631 331.496ZM128.48 337.93C129.682 339.125 131.019 339.166 132.131 338.397L132.18 338.366L131.251 337.441L131.22 337.455C130.543 337.822 129.892 337.725 129.285 337.121C128.485 336.325 128.638 335.18 129.705 334.107L129.714 334.099C130.754 333.053 131.881 332.894 132.69 333.699C133.333 334.339 133.371 335.087 133.002 335.672L132.993 335.69L133.927 336.61L133.949 336.588C134.753 335.512 134.709 334.099 133.49 332.886C132.074 331.477 130.256 331.579 128.727 333.116L128.718 333.125C127.158 334.693 127.064 336.521 128.48 337.93ZM131.958 341.203L132.928 342.168L134.683 340.403L135.512 340.401L135.014 344.244L136.193 345.417L136.827 340.464L140.887 340.432L139.752 339.303L135.791 339.433L135.719 339.362L139.648 335.413L138.679 334.448L131.958 341.203ZM138.935 348.331C140.177 349.567 141.558 349.519 142.355 349.04L142.404 349.009L141.465 348.084L141.412 348.102C141.047 348.237 140.369 348.176 139.748 347.558C138.949 346.763 138.977 345.716 139.884 344.769L143.324 348.191L143.662 347.852C145.111 346.395 145.253 344.59 143.9 343.243C142.546 341.896 140.661 342.039 139.155 343.554L139.15 343.558C137.621 345.095 137.514 346.918 138.935 348.331ZM143.113 344.043C143.77 344.696 143.839 345.601 143.052 346.543L140.586 344.089C141.502 343.338 142.452 343.385 143.113 344.043ZM142.48 351.672L143.449 352.636L146.334 349.737C147.032 349.035 147.99 349.082 148.732 349.82C148.915 350.002 149.058 350.189 149.196 350.398L150.085 349.505C150.009 349.384 149.862 349.193 149.706 349.038C149.058 348.393 148.304 348.248 147.619 348.588L147.547 348.517L148.276 347.785L147.307 346.82L142.48 351.672Z" fill="white"/>
<rect x="239.709" y="378.285" width="59.0019" height="25.8133" rx="12.9067" transform="rotate(-22.6857 239.709 378.285)" fill="#AFD1F1"/>
<path d="M257.771 389.237L258.957 388.741L256.383 382.584L256.476 382.545L261.509 387.674L262.475 387.271L262.366 380.083L262.453 380.046L265.027 386.204L266.213 385.708L262.706 377.318L261.206 377.945L261.329 385.755L261.236 385.794L255.763 380.22L254.263 380.847L257.771 389.237ZM265.931 377.083C266.362 376.903 266.574 376.398 266.394 375.967C266.212 375.531 265.703 375.327 265.273 375.507C264.837 375.689 264.63 376.192 264.812 376.628C264.992 377.059 265.495 377.265 265.931 377.083ZM268.409 384.79L269.665 384.265L267.025 377.951L265.769 378.476L268.409 384.79ZM271.715 383.408L272.976 382.881L271.428 379.177C271.003 378.16 271.313 377.285 272.238 376.899C273.162 376.512 273.815 376.847 274.252 377.894L275.837 381.685L277.093 381.16L275.384 377.072C274.755 375.567 273.623 375.049 272.21 375.64C271.292 376.024 270.857 376.684 270.831 377.487L270.738 377.526L270.337 376.566L269.075 377.094L271.715 383.408ZM281.793 379.339C283.642 378.566 284.258 376.853 283.408 374.818L283.403 374.807C282.552 372.772 280.895 372.01 279.052 372.78C277.203 373.553 276.583 375.274 277.431 377.303L277.436 377.315C278.287 379.35 279.938 380.114 281.793 379.339ZM281.353 378.286C280.266 378.741 279.313 378.176 278.727 376.775L278.722 376.763C278.136 375.362 278.404 374.287 279.491 373.832C280.573 373.38 281.532 373.943 282.118 375.344L282.123 375.355C282.706 376.751 282.435 377.834 281.353 378.286ZM286.444 377.251L287.705 376.724L286.128 372.95C285.746 372.037 286.155 371.17 287.121 370.766C287.359 370.667 287.586 370.606 287.833 370.557L287.346 369.395C287.206 369.419 286.973 369.482 286.77 369.567C285.927 369.92 285.505 370.561 285.557 371.324L285.464 371.363L285.066 370.409L283.804 370.937L286.444 377.251Z" fill="white"/>
<rect x="238.4" y="632.101" width="95.3144" height="95.3144" rx="47.6572" transform="rotate(-20 238.4 632.101)" fill="url(#paint0_linear_118_118)"/>
<path d="M292.823 673.184L296.888 671.704L292.756 660.351L292.857 660.315L301.432 670.05L304.075 669.088L304.386 656.119L304.486 656.082L308.619 667.435L312.684 665.955L306.073 647.793L300.737 649.736L300.501 663.263L300.425 663.29L291.549 653.08L286.213 655.022L292.823 673.184Z" fill="white"/>
<rect x="141.316" y="522.219" width="55.3142" height="55.3142" rx="27.6571" transform="rotate(20 141.316 522.219)" fill="url(#paint1_linear_118_118)"/>
<path d="M154.432 566.971C159.24 568.72 162.922 567.453 164.242 563.828L164.246 563.815C165.304 560.908 164.085 558.697 160.504 556.552L158.77 555.522C156.952 554.447 156.284 553.619 156.641 552.638L156.646 552.625C157.026 551.58 158.262 551.161 159.961 551.779C161.622 552.384 162.523 553.552 162.226 554.798L162.188 554.942L166.48 556.504L166.563 556.235C167.6 552.878 165.799 549.799 161.243 548.141C157.077 546.624 153.223 547.773 151.95 551.272L151.945 551.285C150.933 554.066 152.187 556.533 155.544 558.51L157.279 559.54C159.255 560.73 159.886 561.501 159.51 562.533L159.506 562.546C159.093 563.679 157.677 564.047 155.839 563.378C154.065 562.732 152.985 561.469 153.184 560.216L153.209 560.069L148.917 558.507L148.848 558.738C147.785 562.285 149.913 565.326 154.432 566.971Z" fill="white"/>
<rect x="284.376" y="430.3" width="141.051" height="33.1885" rx="7.37523" transform="rotate(15 284.376 430.3)" fill="white"/>
<path d="M296.403 450.703L297.564 452.712L301.583 450.392" stroke="#DADADA" stroke-width="1.54647" stroke-linecap="round" stroke-linejoin="round"/>
<path fill-rule="evenodd" clip-rule="evenodd" d="M300.436 445.162C303.848 446.076 305.873 449.583 304.959 452.995C304.045 456.407 300.537 458.432 297.126 457.517C293.714 456.603 291.689 453.096 292.603 449.684C293.517 446.272 297.024 444.248 300.436 445.162Z" stroke="#DADADA" stroke-width="1.54647" stroke-linecap="round" stroke-linejoin="round"/>
<path d="M318.279 451.852L319.417 452.157L320.384 460.161L325.218 453.712L326.363 454.018L320.384 461.916L319.495 461.678L318.279 451.852ZM317.907 451.753L318.912 452.022L317.628 457.471L316.701 460.929L315.532 460.616L317.907 451.753ZM325.723 453.847L326.728 454.116L324.353 462.979L323.184 462.666L324.111 459.208L325.723 453.847ZM330.654 463.461L331.563 460.07C331.632 459.81 331.64 459.571 331.585 459.352C331.536 459.13 331.422 458.938 331.243 458.777C331.065 458.617 330.823 458.495 330.519 458.414C330.235 458.338 329.972 458.319 329.731 458.359C329.494 458.4 329.293 458.483 329.129 458.609C328.969 458.736 328.864 458.89 328.816 459.073L327.689 458.771C327.752 458.536 327.876 458.319 328.06 458.12C328.243 457.921 328.474 457.759 328.751 457.633C329.034 457.505 329.35 457.428 329.7 457.405C330.055 457.378 330.431 457.418 330.829 457.525C331.308 457.653 331.708 457.847 332.03 458.107C332.356 458.369 332.578 458.691 332.697 459.076C332.821 459.457 332.817 459.893 332.686 460.384L331.863 463.452C331.805 463.671 331.76 463.909 331.731 464.167C331.705 464.425 331.707 464.654 331.736 464.853L331.71 464.951L330.535 464.636C330.513 464.491 330.515 464.306 330.54 464.082C330.566 463.855 330.604 463.647 330.654 463.461ZM331.617 460.646L331.417 461.44L330.279 461.135C329.958 461.049 329.665 460.999 329.399 460.984C329.135 460.966 328.904 460.984 328.706 461.04C328.508 461.096 328.344 461.189 328.214 461.319C328.084 461.445 327.992 461.61 327.938 461.813C327.882 462.02 327.878 462.221 327.926 462.417C327.974 462.612 328.077 462.785 328.237 462.937C328.402 463.085 328.622 463.197 328.898 463.271C329.243 463.363 329.567 463.372 329.87 463.296C330.173 463.221 330.429 463.098 330.64 462.928C330.855 462.76 330.995 462.578 331.061 462.382L331.396 463.053C331.322 463.216 331.195 463.384 331.013 463.557C330.832 463.73 330.61 463.884 330.348 464.018C330.091 464.149 329.802 464.239 329.48 464.288C329.163 464.333 328.826 464.308 328.469 464.213C328.023 464.093 327.655 463.901 327.364 463.636C327.078 463.372 326.881 463.07 326.773 462.727C326.67 462.382 326.667 462.027 326.765 461.662C326.859 461.309 327.012 461.017 327.221 460.786C327.432 460.551 327.691 460.379 327.999 460.27C328.308 460.157 328.657 460.103 329.047 460.107C329.438 460.112 329.858 460.174 330.308 460.295L331.617 460.646ZM336.086 460.173L334.599 465.725L333.473 465.423L335.237 458.836L336.333 459.13L336.086 460.173ZM338.431 459.653L338.144 460.698C338.056 460.653 337.97 460.617 337.886 460.59C337.807 460.56 337.715 460.531 337.609 460.503C337.35 460.433 337.11 460.412 336.889 460.44C336.668 460.468 336.469 460.537 336.292 460.646C336.115 460.755 335.959 460.9 335.823 461.081C335.693 461.259 335.584 461.465 335.495 461.698L335.13 461.796C335.236 461.398 335.375 461.035 335.545 460.707C335.72 460.379 335.926 460.104 336.165 459.881C336.404 459.653 336.671 459.499 336.967 459.417C337.268 459.333 337.597 459.338 337.955 459.434C338.036 459.456 338.126 459.491 338.226 459.539C338.328 459.584 338.396 459.622 338.431 459.653ZM341.557 457.568L339.052 466.918L337.92 466.615L340.425 457.264L341.557 457.568ZM344.841 461.41L341.144 463.714L339.09 464.951L339.32 463.727L340.839 462.66L343.465 461.041L344.841 461.41ZM342.047 467.72L340.539 463.95L341.392 463.102L343.374 468.076L342.047 467.72ZM350.627 469.158C350.895 469.23 351.157 469.242 351.414 469.193C351.671 469.144 351.897 469.044 352.095 468.892C352.293 468.737 352.435 468.538 352.522 468.296L353.593 468.583C353.469 468.967 353.239 469.295 352.906 469.566C352.577 469.835 352.19 470.021 351.745 470.123C351.301 470.222 350.846 470.209 350.379 470.083C349.884 469.951 349.475 469.748 349.153 469.474C348.834 469.202 348.594 468.881 348.432 468.511C348.274 468.143 348.187 467.745 348.171 467.319C348.16 466.89 348.214 466.454 348.332 466.012L348.401 465.756C348.519 465.314 348.69 464.912 348.913 464.549C349.141 464.184 349.416 463.882 349.737 463.641C350.062 463.402 350.431 463.244 350.843 463.168C351.259 463.092 351.714 463.121 352.209 463.253C352.725 463.392 353.147 463.618 353.476 463.932C353.806 464.242 354.032 464.608 354.155 465.027C354.282 465.444 354.295 465.883 354.194 466.343L353.122 466.056C353.175 465.778 353.163 465.512 353.088 465.257C353.017 465.003 352.885 464.781 352.693 464.59C352.506 464.396 352.262 464.259 351.961 464.179C351.616 464.086 351.308 464.078 351.035 464.152C350.768 464.224 350.535 464.358 350.335 464.552C350.14 464.743 349.975 464.971 349.839 465.235C349.708 465.495 349.604 465.77 349.527 466.058L349.458 466.314C349.381 466.602 349.333 466.893 349.315 467.189C349.297 467.484 349.324 467.763 349.397 468.026C349.474 468.29 349.61 468.522 349.804 468.722C350.004 468.919 350.278 469.065 350.627 469.158ZM355.089 467.764L355.126 467.624C355.254 467.149 355.441 466.727 355.687 466.358C355.935 465.985 356.229 465.683 356.569 465.453C356.911 465.218 357.288 465.067 357.702 464.999C358.117 464.928 358.554 464.953 359.012 465.076C359.475 465.2 359.868 465.397 360.192 465.666C360.521 465.933 360.774 466.253 360.952 466.627C361.136 466.998 361.241 467.407 361.269 467.854C361.299 468.297 361.25 468.755 361.122 469.23L361.085 469.37C360.958 469.845 360.771 470.267 360.524 470.636C360.277 471.005 359.981 471.306 359.636 471.539C359.296 471.77 358.918 471.921 358.503 471.993C358.093 472.061 357.657 472.034 357.194 471.91C356.732 471.786 356.338 471.591 356.013 471.326C355.69 471.056 355.436 470.736 355.253 470.365C355.075 469.991 354.971 469.583 354.942 469.14C354.913 468.697 354.962 468.238 355.089 467.764ZM356.253 467.925L356.215 468.065C356.127 468.394 356.082 468.715 356.081 469.028C356.081 469.336 356.128 469.623 356.223 469.888C356.321 470.153 356.471 470.383 356.671 470.575C356.873 470.764 357.13 470.901 357.442 470.984C357.751 471.067 358.038 471.076 358.303 471.013C358.573 470.946 358.815 470.821 359.029 470.64C359.243 470.458 359.427 470.233 359.581 469.966C359.741 469.695 359.865 469.396 359.953 469.067L359.99 468.927C360.077 468.602 360.119 468.285 360.115 467.975C360.116 467.662 360.067 467.373 359.969 467.107C359.876 466.839 359.729 466.608 359.528 466.415C359.331 466.223 359.077 466.085 358.764 466.002C358.456 465.919 358.167 465.911 357.897 465.978C357.63 466.046 357.388 466.172 357.169 466.357C356.955 466.539 356.77 466.766 356.615 467.037C356.46 467.305 356.34 467.601 356.253 467.925ZM364.391 468.051L362.977 473.329L361.845 473.025L363.61 466.439L364.681 466.726L364.391 468.051ZM363.695 469.724L363.176 469.565C363.301 469.116 363.471 468.716 363.687 468.365C363.904 468.01 364.162 467.72 364.462 467.496C364.761 467.271 365.098 467.127 365.472 467.062C365.847 466.993 366.254 467.017 366.692 467.134C367 467.217 367.273 467.338 367.508 467.496C367.745 467.651 367.934 467.848 368.075 468.085C368.215 468.323 368.299 468.602 368.327 468.923C368.354 469.243 368.312 469.61 368.201 470.024L367.025 474.413L365.899 474.111L367.06 469.777C367.153 469.432 367.168 469.141 367.106 468.902C367.047 468.665 366.925 468.471 366.739 468.321C366.554 468.167 366.32 468.052 366.036 467.976C365.703 467.887 365.409 467.871 365.155 467.929C364.9 467.987 364.678 468.102 364.488 468.273C364.299 468.444 364.138 468.655 364.005 468.907C363.878 469.155 363.774 469.428 363.695 469.724ZM368.129 470.246L367.312 470.275C367.413 469.915 367.564 469.584 367.767 469.282C367.974 468.98 368.222 468.729 368.511 468.528C368.803 468.328 369.132 468.197 369.497 468.134C369.863 468.066 370.255 468.089 370.673 468.201C371.026 468.295 371.326 468.426 371.573 468.592C371.824 468.759 372.017 468.965 372.151 469.21C372.291 469.452 372.369 469.736 372.386 470.063C372.403 470.389 372.356 470.759 372.245 471.173L371.085 475.501L369.953 475.198L371.116 470.858C371.215 470.488 371.233 470.186 371.17 469.952C371.111 469.714 370.988 469.527 370.798 469.389C370.614 469.249 370.378 469.14 370.09 469.062C369.842 468.996 369.612 468.98 369.398 469.014C369.185 469.048 368.993 469.123 368.823 469.238C368.654 469.35 368.509 469.491 368.389 469.664C368.273 469.837 368.186 470.031 368.129 470.246ZM375.564 470.999L373.46 478.852L372.328 478.548L374.771 469.429L375.806 469.707L375.564 470.999ZM379.473 474.16L379.439 474.288C379.311 474.767 379.135 475.196 378.911 475.576C378.689 475.951 378.428 476.259 378.129 476.501C377.833 476.744 377.505 476.906 377.143 476.987C376.782 477.069 376.397 477.055 375.987 476.945C375.569 476.833 375.218 476.665 374.935 476.441C374.651 476.217 374.433 475.944 374.28 475.62C374.128 475.296 374.034 474.932 373.999 474.527C373.968 474.123 373.99 473.683 374.066 473.207L374.248 472.525C374.427 472.051 374.636 471.64 374.873 471.29C375.11 470.94 375.375 470.659 375.667 470.446C375.964 470.23 376.29 470.093 376.644 470.036C377 469.974 377.385 469.999 377.799 470.11C378.213 470.221 378.558 470.401 378.835 470.649C379.114 470.893 379.323 471.193 379.462 471.548C379.602 471.903 379.671 472.302 379.67 472.745C379.674 473.185 379.608 473.657 379.473 474.16ZM378.307 473.985L378.341 473.857C378.429 473.528 378.477 473.211 378.486 472.904C378.495 472.593 378.456 472.309 378.368 472.05C378.286 471.789 378.15 471.566 377.961 471.38C377.772 471.191 377.524 471.054 377.216 470.972C376.932 470.896 376.671 470.878 376.434 470.919C376.201 470.961 375.989 471.045 375.798 471.173C375.609 471.296 375.439 471.45 375.289 471.636C375.144 471.819 375.02 472.017 374.915 472.228L374.493 473.804C374.498 474.11 374.54 474.409 374.618 474.699C374.698 474.986 374.839 475.239 375.041 475.459C375.245 475.674 375.531 475.831 375.9 475.93C376.204 476.012 376.483 476.019 376.736 475.952C376.994 475.882 377.224 475.754 377.426 475.569C377.632 475.385 377.808 475.158 377.954 474.888C378.101 474.615 378.219 474.314 378.307 473.985ZM383.964 468.931L381.459 478.281L380.327 477.977L382.832 468.627L383.964 468.931ZM386.19 479.679C385.732 479.556 385.336 479.368 385.004 479.113C384.677 478.856 384.418 478.55 384.226 478.194C384.039 477.839 383.926 477.448 383.888 477.02C383.851 476.592 383.894 476.147 384.018 475.685L384.086 475.429C384.23 474.893 384.437 474.438 384.707 474.062C384.978 473.682 385.289 473.383 385.639 473.164C385.99 472.944 386.357 472.806 386.742 472.748C387.128 472.69 387.505 472.711 387.874 472.81C388.345 472.936 388.729 473.126 389.026 473.38C389.328 473.634 389.549 473.937 389.69 474.288C389.832 474.635 389.903 475.019 389.903 475.441C389.904 475.859 389.843 476.299 389.719 476.762L389.583 477.267L384.665 475.949L384.911 475.03L388.703 476.046L388.726 475.961C388.788 475.665 388.804 475.364 388.772 475.06C388.744 474.757 388.643 474.486 388.468 474.248C388.292 474.009 388.012 473.838 387.626 473.735C387.371 473.667 387.121 473.658 386.876 473.71C386.633 473.758 386.406 473.867 386.195 474.037C385.984 474.206 385.795 474.432 385.629 474.714C385.462 474.995 385.325 475.335 385.219 475.732L385.15 475.988C385.066 476.301 385.03 476.606 385.041 476.905C385.058 477.201 385.122 477.474 385.232 477.726C385.347 477.979 385.509 478.196 385.717 478.378C385.929 478.561 386.189 478.693 386.497 478.776C386.895 478.883 387.254 478.892 387.573 478.803C387.893 478.715 388.192 478.563 388.472 478.346L389.009 479.071C388.809 479.248 388.573 479.404 388.302 479.54C388.031 479.676 387.719 479.762 387.365 479.798C387.016 479.835 386.624 479.795 386.19 479.679ZM394.846 474.808L394.614 475.673L391.053 474.719L391.284 473.854L394.846 474.808ZM392.919 472.576L394.045 472.878L392.288 479.434C392.228 479.657 392.218 479.835 392.256 479.967C392.295 480.099 392.364 480.198 392.464 480.264C392.564 480.33 392.676 480.38 392.802 480.413C392.895 480.438 392.995 480.456 393.101 480.467C393.212 480.475 393.295 480.48 393.351 480.482L393.111 481.403C393.014 481.407 392.889 481.402 392.737 481.387C392.587 481.378 392.411 481.346 392.208 481.291C391.932 481.218 391.693 481.095 391.491 480.923C391.289 480.752 391.153 480.52 391.084 480.227C391.02 479.931 391.046 479.564 391.164 479.126L392.919 472.576ZM397.325 482.663C396.866 482.54 396.471 482.351 396.139 482.097C395.812 481.84 395.553 481.533 395.361 481.177C395.173 480.822 395.061 480.431 395.023 480.004C394.985 479.576 395.029 479.131 395.152 478.668L395.221 478.413C395.365 477.877 395.571 477.421 395.842 477.046C396.113 476.666 396.424 476.366 396.774 476.147C397.124 475.928 397.492 475.789 397.877 475.732C398.262 475.674 398.64 475.694 399.009 475.793C399.48 475.92 399.864 476.109 400.161 476.363C400.463 476.618 400.684 476.921 400.825 477.272C400.966 477.618 401.037 478.003 401.037 478.425C401.039 478.843 400.977 479.283 400.853 479.746L400.718 480.251L395.799 478.933L396.046 478.014L399.838 479.03L399.861 478.945C399.923 478.648 399.938 478.348 399.907 478.043C399.879 477.74 399.778 477.47 399.602 477.231C399.427 476.993 399.146 476.822 398.761 476.719C398.505 476.65 398.255 476.642 398.011 476.694C397.767 476.742 397.54 476.85 397.33 477.02C397.119 477.19 396.93 477.416 396.763 477.697C396.596 477.979 396.46 478.318 396.353 478.716L396.285 478.972C396.201 479.284 396.165 479.59 396.176 479.888C396.192 480.184 396.256 480.458 396.367 480.71C396.482 480.962 396.644 481.179 396.851 481.361C397.063 481.544 397.324 481.677 397.632 481.76C398.03 481.866 398.388 481.875 398.708 481.787C399.027 481.699 399.327 481.546 399.607 481.33L400.143 482.054C399.944 482.231 399.708 482.388 399.437 482.524C399.165 482.66 398.853 482.746 398.5 482.782C398.151 482.819 397.759 482.779 397.325 482.663Z" fill="#DADADA"/>
<rect x="298.984" y="484.469" width="116.16" height="33.1885" rx="7.37523" transform="rotate(35 298.984 484.469)" fill="#C4E2FF"/>
<path d="M303.308 507.755L303.712 510.04L308.282 509.234" stroke="white" stroke-width="1.54647" stroke-linecap="round" stroke-linejoin="round"/>
<path fill-rule="evenodd" clip-rule="evenodd" d="M308.993 503.927C311.886 505.953 312.59 509.941 310.564 512.835C308.538 515.728 304.549 516.431 301.656 514.406C298.763 512.379 298.06 508.391 300.086 505.498C302.112 502.604 306.1 501.901 308.993 503.927Z" stroke="white" stroke-width="1.54647" stroke-linecap="round" stroke-linejoin="round"/>
<path d="M325.092 525.099C324.442 525.829 323.718 526.237 322.919 526.324C322.125 526.409 321.319 526.165 320.5 525.592C319.612 524.97 319.123 524.153 319.032 523.14C318.944 522.13 319.274 521.092 320.021 520.025L320.527 519.302C321.016 518.603 321.57 518.076 322.189 517.719C322.811 517.365 323.45 517.207 324.105 517.246C324.763 517.28 325.393 517.509 325.995 517.93C326.794 518.49 327.277 519.161 327.446 519.946C327.617 520.728 327.466 521.54 326.993 522.384L325.997 521.686C326.33 521.027 326.446 520.462 326.345 519.991C326.248 519.523 325.941 519.108 325.424 518.746C324.791 518.303 324.13 518.188 323.441 518.404C322.755 518.621 322.11 519.162 321.505 520.025L320.995 520.753C320.424 521.569 320.14 522.337 320.144 523.057C320.147 523.778 320.455 524.352 321.068 524.781C321.618 525.167 322.127 525.338 322.593 525.295C323.064 525.251 323.566 524.953 324.096 524.401L325.092 525.099ZM326.558 525.44C326.941 524.893 327.392 524.476 327.911 524.188C328.434 523.903 328.97 523.775 329.518 523.805C330.07 523.838 330.592 524.026 331.084 524.371C331.845 524.903 332.275 525.597 332.374 526.451C332.477 527.308 332.222 528.173 331.61 529.047L331.563 529.114C331.182 529.658 330.735 530.073 330.221 530.36C329.714 530.646 329.181 530.773 328.623 530.741C328.069 530.712 327.541 530.522 327.039 530.17C326.281 529.64 325.851 528.947 325.749 528.09C325.649 527.236 325.903 526.375 326.511 525.508L326.558 525.44ZM327.438 526.226C327.004 526.846 326.799 527.443 326.822 528.018C326.848 528.596 327.103 529.053 327.584 529.391C328.07 529.73 328.588 529.811 329.138 529.633C329.692 529.451 330.208 529.017 330.687 528.332C331.116 527.72 331.317 527.122 331.29 526.538C331.268 525.954 331.016 525.493 330.535 525.155C330.063 524.825 329.551 524.747 329 524.919C328.448 525.092 327.927 525.528 327.438 526.226ZM335.847 527.859L335.439 528.497C336.186 528.302 336.907 528.448 337.602 528.935C338.383 529.482 338.705 530.153 338.568 530.95C338.942 530.812 339.335 530.763 339.746 530.805C340.161 530.85 340.572 531.014 340.978 531.299C342.203 532.157 342.372 533.241 341.484 534.553L338.863 538.296L337.908 537.627L340.489 533.941C340.769 533.542 340.886 533.181 340.841 532.857C340.798 532.529 340.562 532.215 340.132 531.914C339.777 531.666 339.408 531.566 339.025 531.616C338.644 531.662 338.309 531.851 338.021 532.182L335.425 535.889L334.465 535.216L337.028 531.556C337.597 530.744 337.483 530.06 336.688 529.503C336.062 529.064 335.447 529.031 334.843 529.403L331.987 533.481L331.032 532.813L334.943 527.227L335.847 527.859ZM347.128 540.013C346.533 540.863 345.859 541.412 345.106 541.66C344.353 541.907 343.645 541.798 342.981 541.333C342.303 540.858 341.92 540.27 341.832 539.567L339.949 542.257L338.994 541.588L344.409 533.855L345.281 534.466L344.894 535.118C345.62 534.908 346.329 535.046 347.021 535.53C347.692 536 348.045 536.624 348.08 537.402C348.118 538.183 347.821 539.024 347.19 539.926L347.128 540.013ZM346.249 539.236C346.69 538.606 346.904 538.015 346.891 537.462C346.878 536.91 346.638 536.469 346.169 536.142C345.591 535.737 344.978 535.69 344.33 536L342.461 538.669C342.39 539.378 342.649 539.939 343.237 540.351C343.695 540.672 344.185 540.745 344.706 540.572C345.234 540.397 345.748 539.952 346.249 539.236ZM347.661 544.456L346.706 543.787L352.258 535.858L353.213 536.527L347.661 544.456ZM351.628 547.388C350.871 546.858 350.429 546.179 350.301 545.351C350.175 544.519 350.404 543.687 350.987 542.854L351.11 542.679C351.498 542.124 351.949 541.704 352.462 541.417C352.982 541.13 353.516 540.996 354.066 541.017C354.622 541.037 355.121 541.202 355.565 541.513C356.292 542.021 356.688 542.656 356.756 543.416C356.824 544.176 356.546 545.002 355.921 545.894L355.643 546.291L351.859 543.641C351.487 544.202 351.335 544.76 351.403 545.315C351.477 545.869 351.751 546.312 352.226 546.645C352.563 546.881 352.897 547.012 353.227 547.038C353.558 547.065 353.89 547.026 354.225 546.921L354.49 547.784C353.518 548.176 352.564 548.044 351.628 547.388ZM355.016 542.298C354.63 542.028 354.208 541.942 353.749 542.041C353.292 542.137 352.856 542.416 352.44 542.878L355.238 544.838L355.288 544.765C355.6 544.261 355.732 543.794 355.684 543.365C355.638 542.933 355.415 542.577 355.016 542.298ZM361.332 543.689L360.385 545.041L361.428 545.771L360.911 546.51L359.868 545.78L357.442 549.243C357.286 549.467 357.214 549.668 357.228 549.847C357.243 550.022 357.363 550.188 357.587 550.345C357.697 550.422 357.863 550.507 358.084 550.601L357.542 551.375C357.243 551.268 356.974 551.131 356.737 550.965C356.31 550.666 356.079 550.312 356.043 549.902C356.007 549.492 356.155 549.05 356.487 548.575L358.913 545.111L357.896 544.399L358.413 543.66L359.43 544.373L360.377 543.02L361.332 543.689ZM361.071 554C360.314 553.47 359.871 552.791 359.743 551.963C359.618 551.131 359.847 550.299 360.43 549.466L360.553 549.29C360.941 548.736 361.392 548.316 361.905 548.029C362.425 547.742 362.959 547.608 363.509 547.629C364.064 547.649 364.564 547.814 365.008 548.125C365.734 548.633 366.131 549.268 366.199 550.028C366.267 550.788 365.988 551.614 365.364 552.505L365.086 552.903L361.302 550.253C360.93 550.814 360.778 551.371 360.846 551.927C360.919 552.481 361.194 552.924 361.668 553.257C362.006 553.493 362.34 553.624 362.67 553.65C363 553.676 363.333 553.637 363.668 553.533L363.933 554.396C362.961 554.787 362.007 554.655 361.071 554ZM364.459 548.909C364.073 548.639 363.651 548.554 363.192 548.653C362.735 548.749 362.298 549.028 361.882 549.49L364.68 551.45L364.731 551.377C365.043 550.873 365.175 550.406 365.127 549.977C365.08 549.545 364.858 549.189 364.459 548.909ZM366.376 553.33C366.976 552.473 367.661 551.926 368.431 551.691C369.204 551.452 369.919 551.563 370.576 552.023C371.23 552.481 371.591 553.068 371.66 553.783L373.699 550.871L374.654 551.54L369.101 559.469L368.224 558.855L368.597 558.223C367.887 558.424 367.191 558.286 366.51 557.808C365.863 557.355 365.52 556.72 365.482 555.904C365.447 555.089 365.728 554.255 366.326 553.402L366.376 553.33ZM367.255 554.107C366.812 554.74 366.596 555.327 366.607 555.868C366.618 556.409 366.854 556.841 367.315 557.164C367.921 557.588 368.553 557.626 369.213 557.277L371.009 554.712C371.092 553.985 370.838 553.415 370.246 553C369.778 552.672 369.287 552.598 368.772 552.776C368.257 552.954 367.752 553.398 367.255 554.107Z" fill="white"/>
<path fill-rule="evenodd" clip-rule="evenodd" d="M126.121 658.496L125.892 656.595C125.698 654.985 124.239 653.837 122.629 654.027V654.027C121.859 654.127 121.08 653.917 120.465 653.443C119.85 652.968 119.449 652.269 119.35 651.498C119.284 651.007 119.349 650.508 119.539 650.05V650.05C119.871 649.328 119.897 648.503 119.611 647.762C119.325 647.021 118.751 646.427 118.02 646.116L116.248 645.361C115.532 645.055 114.724 645.048 114.002 645.341C113.281 645.633 112.706 646.2 112.404 646.918V646.918C111.753 648.387 110.043 649.061 108.564 648.431C108.111 648.232 107.718 647.917 107.425 647.517V647.517C106.447 646.225 104.608 645.968 103.313 646.942L101.707 648.092C100.413 649.066 100.151 650.902 101.119 652.199V652.199C101.75 653.038 101.885 654.151 101.473 655.117C101.061 656.083 100.165 656.756 99.1229 656.883V656.883C97.5204 657.079 96.3796 658.535 96.5737 660.138V660.138L96.8104 662.058C96.891 662.836 97.2783 663.55 97.8865 664.041C98.4947 664.533 99.2738 664.762 100.051 664.678V664.678C100.822 664.58 101.599 664.795 102.21 665.274C102.821 665.752 103.216 666.455 103.307 667.227C103.372 667.718 103.307 668.217 103.118 668.675V668.675C102.481 670.168 103.176 671.895 104.67 672.531L106.442 673.287C107.931 673.921 109.652 673.233 110.293 671.748V671.748C110.596 671.028 111.173 670.459 111.898 670.168C112.622 669.876 113.433 669.886 114.149 670.196C114.599 670.402 114.99 670.716 115.289 671.109V671.109C116.262 672.403 118.098 672.666 119.395 671.697V671.697L120.989 670.542C121.613 670.077 122.026 669.382 122.136 668.611C122.247 667.84 122.045 667.057 121.577 666.435V666.435C121.108 665.814 120.906 665.031 121.017 664.26C121.127 663.489 121.54 662.794 122.165 662.329C122.573 662.019 123.058 661.825 123.567 661.765V661.765C125.165 661.561 126.302 660.109 126.116 658.509V658.509L126.121 658.496Z" stroke="#8DC8FF" stroke-width="3.09294" stroke-linecap="round" stroke-linejoin="round"/>
<ellipse cx="111.351" cy="659.326" rx="4.05047" ry="4.05047" transform="rotate(23.08 111.351 659.326)" stroke="#8DC8FF" stroke-width="3.09294" stroke-linecap="round" stroke-linejoin="round"/>
<path fill-rule="evenodd" clip-rule="evenodd" d="M155.132 237.232C162.328 234.1 170.703 237.394 173.836 244.592C176.968 251.789 173.672 260.164 166.475 263.296C159.278 266.429 150.904 263.132 147.772 255.936C144.639 248.738 147.934 240.365 155.132 237.232Z" stroke="#ACD7FF" stroke-width="3.09294" stroke-linecap="round" stroke-linejoin="round"/>
<path d="M158.469 244.919L161.179 251.145" stroke="#ACD7FF" stroke-width="3.09294" stroke-linecap="round" stroke-linejoin="round"/>
<path d="M163.124 255.615L163.138 255.609" stroke="#ACD7FF" stroke-width="3.09294" stroke-linecap="round" stroke-linejoin="round"/>
<path d="M263.732 283.804L281.845 294.571" stroke="#B2DAFF" stroke-width="3.09294" stroke-linecap="round" stroke-linejoin="round"/>
<path d="M263.09 292.615L274.411 299.345" stroke="#B2DAFF" stroke-width="3.09294" stroke-linecap="round" stroke-linejoin="round"/>
<path d="M262.448 301.427L266.977 304.118" stroke="#B2DAFF" stroke-width="3.09294" stroke-linecap="round" stroke-linejoin="round"/>
<path fill-rule="evenodd" clip-rule="evenodd" d="M271.134 141.114L270.905 139.212C270.711 137.603 269.252 136.455 267.642 136.645V136.645C266.872 136.745 266.093 136.535 265.478 136.06C264.863 135.586 264.462 134.886 264.363 134.116C264.297 133.625 264.362 133.125 264.552 132.668V132.668C264.884 131.946 264.91 131.121 264.624 130.38C264.338 129.638 263.764 129.045 263.033 128.734L261.261 127.978C260.545 127.673 259.736 127.666 259.015 127.958C258.294 128.25 257.719 128.818 257.417 129.536V129.536C256.766 131.005 255.056 131.679 253.577 131.049C253.124 130.85 252.73 130.535 252.438 130.135V130.135C251.46 128.843 249.621 128.585 248.326 129.56L246.72 130.71C245.426 131.684 245.164 133.519 246.132 134.817V134.817C246.762 135.656 246.897 136.768 246.486 137.735C246.074 138.701 245.178 139.374 244.136 139.5V139.5C242.533 139.696 241.393 141.153 241.587 142.756V142.756L241.823 144.676C241.904 145.454 242.291 146.167 242.899 146.659C243.508 147.151 244.287 147.38 245.064 147.295V147.295C245.835 147.198 246.612 147.413 247.223 147.891C247.834 148.37 248.229 149.073 248.32 149.844C248.385 150.335 248.32 150.835 248.131 151.293V151.293C247.494 152.786 248.189 154.513 249.682 155.149L251.455 155.904C252.943 156.539 254.665 155.851 255.306 154.365V154.365C255.609 153.646 256.186 153.077 256.911 152.785C257.635 152.494 258.446 152.504 259.162 152.814C259.612 153.019 260.003 153.333 260.302 153.727V153.727C261.275 155.02 263.111 155.283 264.408 154.315V154.315L266.001 153.159C266.626 152.694 267.039 151.999 267.149 151.229C267.26 150.458 267.058 149.675 266.589 149.053V149.053C266.121 148.431 265.919 147.648 266.03 146.878C266.14 146.107 266.553 145.412 267.177 144.947C267.586 144.637 268.07 144.442 268.58 144.382V144.382C270.178 144.179 271.315 142.727 271.129 141.127V141.127L271.134 141.114Z" stroke="#CCE6FF" stroke-width="3.09294" stroke-linecap="round" stroke-linejoin="round"/>
<ellipse cx="256.364" cy="141.944" rx="4.05047" ry="4.05047" transform="rotate(23.08 256.364 141.944)" stroke="#CCE6FF" stroke-width="3.09294" stroke-linecap="round" stroke-linejoin="round"/>
<path d="M71.255 228.272L68.658 225.675L67.0083 227.325L71.4113 231.728L78.0636 223.748L76.2693 222.252L71.255 228.272Z" fill="white" fill-opacity="0.8"/>
<path d="M80.6664 216H64.3331C63.0463 216 61.9998 217.046 61.9998 218.333V234.667C61.9998 235.953 63.0463 237 64.3331 237H80.6664C81.9533 237 82.9998 235.953 82.9998 234.667V218.333C82.9998 217.046 81.9533 216 80.6664 216ZM64.3331 234.667V218.333H80.6664L80.6688 234.667H64.3331Z" fill="white" fill-opacity="0.8"/>
<path d="M235.585 15.5112L234.454 12.0168L232.235 12.7348L234.151 18.6593L243.707 14.5815L242.79 12.433L235.585 15.5112Z" fill="white" fill-opacity="0.8"/>
<path d="M249.55 8.86747L235.007 1.43357C233.861 0.847883 232.453 1.30341 231.867 2.44923L224.433 16.9928C223.848 18.1386 224.303 19.5467 225.449 20.1324L239.993 27.5663C241.138 28.152 242.546 27.6965 243.132 26.5507L250.566 12.0071C251.152 10.8613 250.696 9.45316 249.55 8.86747ZM226.511 18.0548L233.945 3.51122L248.488 10.9451L241.057 25.4897L226.511 18.0548Z" fill="white" fill-opacity="0.8"/>
<path d="M27.9934 647.605L24.6237 646.144L23.6957 648.285L29.4087 650.762L32.6629 640.895L30.4445 640.164L27.9934 647.605Z" fill="white" fill-opacity="0.8"/>
<path d="M32.2364 632.733L17.046 638.736C15.8492 639.209 15.2606 640.567 15.7335 641.763L21.7359 656.954C22.2088 658.151 23.5667 658.739 24.7635 658.266L39.9539 652.264C41.1507 651.791 41.7394 650.433 41.2664 649.236L35.264 634.046C34.7911 632.849 33.4332 632.26 32.2364 632.733ZM23.906 656.096L17.9035 640.906L33.0939 634.903L39.0986 650.093L23.906 656.096Z" fill="white" fill-opacity="0.8"/>
<path d="M27.9934 647.605L24.6237 646.144L23.6957 648.285L29.4087 650.762L32.6629 640.895L30.4445 640.164L27.9934 647.605Z" fill="white" fill-opacity="0.8"/>
<path d="M32.2364 632.733L17.046 638.736C15.8492 639.209 15.2606 640.567 15.7335 641.763L21.7359 656.954C22.2088 658.151 23.5667 658.739 24.7635 658.266L39.9539 652.264C41.1507 651.791 41.7394 650.433 41.2664 649.236L35.264 634.046C34.7911 632.849 33.4332 632.26 32.2364 632.733ZM23.906 656.096L17.9035 640.906L33.0939 634.903L39.0986 650.093L23.906 656.096Z" fill="white" fill-opacity="0.8"/>
<path d="M196.537 695.415L195.581 691.869L193.329 692.477L194.95 698.489L204.695 694.888L203.885 692.697L196.537 695.415Z" fill="white" fill-opacity="0.8"/>
<path d="M210.814 689.47L196.656 681.326C195.54 680.685 194.112 681.07 193.47 682.186L185.326 696.344C184.685 697.46 185.07 698.889 186.186 699.53L200.344 707.674C201.46 708.315 202.888 707.93 203.53 706.814L211.674 692.656C212.315 691.541 211.93 690.112 210.814 689.47ZM187.349 697.507L195.493 683.349L209.651 691.493L201.509 705.652L187.349 697.507Z" fill="white" fill-opacity="0.8"/>
<path d="M232.293 536.046L229.078 534.27L227.95 536.312L233.401 539.323L237.582 529.812L235.443 528.872L232.293 536.046Z" fill="white" fill-opacity="0.8"/>
<path d="M237.936 521.646L222.242 526.172C221.006 526.529 220.29 527.824 220.647 529.061L225.172 544.754C225.529 545.991 226.824 546.706 228.061 546.35L243.754 541.824C244.991 541.468 245.707 540.172 245.35 538.936L240.824 523.242C240.468 522.005 239.172 521.29 237.936 521.646ZM227.414 544.108L222.888 528.414L238.582 523.888L243.11 539.582L227.414 544.108Z" fill="white" fill-opacity="0.8"/>
<defs>
<linearGradient id="paint0_linear_118_118" x1="286.057" y1="632.101" x2="286.057" y2="727.415" gradientUnits="userSpaceOnUse">
<stop stop-color="#CFE8FF"/>
<stop offset="1" stop-color="#B0D9FF"/>
</linearGradient>
<linearGradient id="paint1_linear_118_118" x1="168.974" y1="522.219" x2="168.974" y2="577.533" gradientUnits="userSpaceOnUse">
<stop stop-color="white"/>
<stop offset="0.0001" stop-color="#89C6FF"/>
<stop offset="0.0002" stop-color="#E0ECFF"/>
<stop offset="1" stop-color="#E9E5FF"/>
<stop offset="1" stop-color="#73BBFF"/>
</linearGradient>
</defs>
</svg>
