<svg width="36" height="36" viewBox="0 0 36 36" fill="none" xmlns="http://www.w3.org/2000/svg">
<path d="M12.9151 33C12.1831 32.9957 11.4724 32.7535 10.8901 32.31L7.78505 30C7.06852 29.4413 6.59309 28.6295 6.4564 27.7313C6.31971 26.833 6.53213 25.9165 7.05005 25.17C7.32408 24.7654 7.49824 24.3015 7.55821 23.8165C7.61818 23.3315 7.56227 22.8392 7.39505 22.38L7.30505 22.14C7.18862 21.7244 6.97582 21.342 6.68391 21.0241C6.39201 20.7061 6.02924 20.4615 5.62505 20.31H5.38505C4.50886 20.0154 3.78427 19.387 3.36862 18.5613C2.95296 17.7356 2.87982 16.7793 3.16505 15.9L4.39505 12C4.50828 11.5481 4.71674 11.1257 5.00647 10.7609C5.29621 10.3962 5.66054 10.0975 6.07505 9.885C6.46108 9.6861 6.88345 9.5676 7.3166 9.53666C7.74975 9.50572 8.18468 9.56299 8.59505 9.705C9.04188 9.85538 9.51867 9.89436 9.98399 9.81855C10.4493 9.74274 10.8891 9.55443 11.2651 9.27L11.4601 9.12C11.8004 8.84843 12.0755 8.50395 12.265 8.11195C12.4545 7.71994 12.5536 7.29041 12.5551 6.855V6.495C12.551 5.5772 12.9097 4.69496 13.5531 4.04037C14.1964 3.38579 15.0723 3.01186 15.9901 3H19.8151C20.2616 3.0012 20.7034 3.09061 21.1153 3.26307C21.5272 3.43554 21.9009 3.68768 22.2151 4.005C22.8755 4.67669 23.2424 5.58304 23.2351 6.525V6.945C23.2274 7.35863 23.3171 7.76825 23.4969 8.14084C23.6767 8.51344 23.9415 8.83856 24.2701 9.09L24.4351 9.21C24.7717 9.46245 25.1644 9.62976 25.5797 9.69767C25.995 9.76558 26.4205 9.73207 26.8201 9.6L27.3301 9.435C27.7621 9.29177 28.2187 9.23703 28.6724 9.27404C29.1261 9.31106 29.5677 9.43908 29.9709 9.65046C30.374 9.86184 30.7305 10.1523 31.019 10.5044C31.3075 10.8565 31.5221 11.2631 31.6501 11.7L32.8351 15.48C33.1092 16.3536 33.0343 17.2994 32.6259 18.1189C32.2176 18.9384 31.5076 19.5678 30.6451 19.875L30.3451 19.98C29.9038 20.1245 29.5048 20.3751 29.1831 20.7099C28.8614 21.0447 28.6269 21.4534 28.5001 21.9C28.3807 22.3152 28.3523 22.7513 28.4171 23.1785C28.4818 23.6056 28.638 24.0138 28.8751 24.375L29.2651 24.945C29.7822 25.6957 29.9927 26.6157 29.8532 27.5166C29.7138 28.4175 29.235 29.2308 28.5151 29.79L25.5001 32.115C25.1358 32.3936 24.7184 32.5946 24.2735 32.7058C23.8286 32.817 23.3657 32.8359 22.9132 32.7614C22.4608 32.6869 22.0283 32.5206 21.6425 32.2727C21.2568 32.0249 20.9258 31.7006 20.6701 31.32L20.4901 31.065C20.2444 30.6958 19.9092 30.3949 19.5157 30.1903C19.1223 29.9857 18.6834 29.8841 18.2401 29.895C17.817 29.906 17.4025 30.0162 17.0299 30.2168C16.6573 30.4175 16.3371 30.7029 16.0951 31.05L15.7501 31.545C15.4942 31.9283 15.1626 32.2551 14.7756 32.5054C14.3887 32.7556 13.9546 32.9239 13.5001 33C13.3055 33.0191 13.1096 33.0191 12.9151 33ZM6.60005 17.43C7.44709 17.732 8.21139 18.2287 8.83145 18.88C9.45151 19.5314 9.91001 20.3191 10.1701 21.18V21.36C10.494 22.2549 10.6003 23.2141 10.4803 24.1583C10.3604 25.1024 10.0175 26.0045 9.48005 26.79C9.38519 26.8948 9.33266 27.0311 9.33266 27.1725C9.33266 27.3139 9.38519 27.4502 9.48005 27.555L12.7051 30C12.7471 30.033 12.7958 30.0567 12.8478 30.0694C12.8997 30.0821 12.9538 30.0835 13.0064 30.0736C13.059 30.0636 13.1088 30.0425 13.1526 30.0117C13.1963 29.9809 13.233 29.9411 13.2601 29.895L13.6051 29.4C14.1254 28.6482 14.8203 28.0337 15.6301 27.6093C16.44 27.1849 17.3407 26.9632 18.2551 26.9632C19.1694 26.9632 20.0701 27.1849 20.88 27.6093C21.6898 28.0337 22.3847 28.6482 22.9051 29.4L23.0851 29.67C23.1495 29.7615 23.2458 29.8257 23.3551 29.85C23.4052 29.8574 23.4562 29.8546 23.5052 29.8417C23.5542 29.8288 23.6001 29.8061 23.6401 29.775L26.7301 27.435C26.8382 27.3491 26.9094 27.2251 26.9289 27.0884C26.9484 26.9517 26.9149 26.8127 26.8351 26.7L26.4451 26.13C25.9369 25.389 25.6016 24.5433 25.464 23.6554C25.3264 22.7675 25.39 21.86 25.6501 21C25.9137 20.0961 26.3905 19.2686 27.0405 18.5874C27.6904 17.9061 28.4945 17.3908 29.3851 17.085L29.6851 16.98C29.8101 16.9299 29.9102 16.8324 29.9636 16.7088C30.017 16.5851 30.0193 16.4454 29.9701 16.32L28.8001 12.585C28.772 12.5197 28.7309 12.4607 28.6793 12.4117C28.6277 12.3627 28.5668 12.3247 28.5001 12.3C28.4559 12.2776 28.4071 12.2659 28.3576 12.2659C28.308 12.2659 28.2592 12.2776 28.215 12.3L27.7051 12.465C26.8423 12.7497 25.9234 12.8207 25.0272 12.6718C24.1309 12.5228 23.2843 12.1585 22.5601 11.61L22.5001 11.475C21.8051 10.9487 21.2416 10.2684 20.8538 9.48763C20.466 8.70684 20.2645 7.84679 20.2651 6.975V6.51C20.2678 6.36542 20.2139 6.2255 20.1151 6.12C20.0288 6.04201 19.9164 5.99919 19.8001 6H15.9901C15.9289 6.00381 15.8692 6.01966 15.8142 6.04663C15.7593 6.07359 15.7101 6.11115 15.6697 6.15714C15.6293 6.20314 15.5984 6.25666 15.5787 6.31464C15.559 6.37261 15.551 6.43391 15.5551 6.495V6.87C15.5551 7.76556 15.3496 8.64918 14.9543 9.45278C14.559 10.2564 13.9845 10.9585 13.2751 11.505L13.0801 11.655C12.3146 12.2378 11.4176 12.6233 10.4681 12.7776C9.51855 12.932 8.54562 12.8504 7.63505 12.54C7.56692 12.5171 7.49318 12.5171 7.42505 12.54C7.3404 12.5914 7.27664 12.6711 7.24505 12.765L6.00005 16.68C5.95665 16.8133 5.96682 16.9583 6.02841 17.0843C6.09 17.2103 6.19817 17.3074 6.33005 17.355L6.60005 17.43Z" fill="black"/>
<path d="M18 23.25C16.9617 23.25 15.9466 22.9421 15.0833 22.3652C14.2199 21.7883 13.547 20.9684 13.1496 20.0091C12.7523 19.0498 12.6483 17.9942 12.8509 16.9758C13.0535 15.9574 13.5535 15.0219 14.2877 14.2877C15.0219 13.5535 15.9574 13.0535 16.9758 12.8509C17.9942 12.6483 19.0498 12.7523 20.0091 13.1496C20.9684 13.547 21.7883 14.2199 22.3652 15.0833C22.9421 15.9466 23.25 16.9617 23.25 18C23.25 19.3924 22.6969 20.7277 21.7123 21.7123C20.7277 22.6969 19.3924 23.25 18 23.25ZM18 15.75C17.555 15.75 17.12 15.882 16.75 16.1292C16.38 16.3764 16.0916 16.7278 15.9213 17.139C15.751 17.5501 15.7064 18.0025 15.7932 18.439C15.8801 18.8754 16.0943 19.2763 16.409 19.591C16.7237 19.9057 17.1246 20.12 17.561 20.2068C17.9975 20.2936 18.4499 20.249 18.861 20.0787C19.2722 19.9084 19.6236 19.62 19.8708 19.25C20.118 18.88 20.25 18.445 20.25 18C20.25 17.4033 20.013 16.831 19.591 16.409C19.169 15.9871 18.5967 15.75 18 15.75Z" fill="black"/>
</svg>
