<svg width="36" height="36" viewBox="0 0 36 36" fill="none" xmlns="http://www.w3.org/2000/svg">
<path fill-rule="evenodd" clip-rule="evenodd" d="M6.72002 2.3999H6.60002C6.05042 2.3999 5.57762 2.3999 5.16002 2.4983C4.51355 2.65278 3.92246 2.98321 3.45226 3.453C2.98205 3.92278 2.65108 4.51357 2.49602 5.1599C2.40002 5.5775 2.40002 6.0479 2.40002 6.5999V12.5999C2.40002 13.1495 2.40002 13.6223 2.49842 14.0399C2.6529 14.6864 2.98334 15.2775 3.45312 15.7477C3.9229 16.2179 4.51369 16.5488 5.16002 16.7039C5.57762 16.7999 6.04802 16.7999 6.60002 16.7999H12.6C13.1496 16.7999 13.6224 16.7999 14.04 16.7015C14.6865 16.547 15.2776 16.2166 15.7478 15.7468C16.218 15.277 16.549 14.6862 16.704 14.0399C16.8 13.6223 16.8 13.1519 16.8 12.5999V6.5999C16.8 6.0503 16.8 5.5775 16.7016 5.1599C16.5471 4.51343 16.2167 3.92234 15.7469 3.45214C15.2771 2.98193 14.6864 2.65096 14.04 2.4959C13.6224 2.3999 13.152 2.3999 12.6 2.3999H6.72002ZM5.71922 4.8335C5.82242 4.8095 5.98322 4.7999 6.72002 4.7999H12.48C13.2192 4.7999 13.3776 4.8071 13.4808 4.8335C13.6964 4.88506 13.8935 4.99532 14.0503 5.15207C14.207 5.30881 14.3173 5.50591 14.3688 5.7215C14.3928 5.8223 14.4 5.9807 14.4 6.7199V12.4799C14.4 13.2191 14.3928 13.3775 14.3664 13.4807C14.3149 13.6963 14.2046 13.8934 14.0479 14.0501C13.8911 14.2069 13.694 14.3171 13.4784 14.3687C13.38 14.3903 13.2216 14.3999 12.48 14.3999H6.72002C5.98082 14.3999 5.82242 14.3927 5.71922 14.3663C5.50363 14.3147 5.30653 14.2045 5.14979 14.0477C4.99305 13.891 4.88278 13.6939 4.83122 13.4783C4.80962 13.3799 4.80002 13.2215 4.80002 12.4799V6.7199C4.80002 5.9807 4.80722 5.8223 4.83362 5.7191C4.88518 5.50351 4.99544 5.30641 5.15219 5.14967C5.30893 4.99292 5.50603 4.88266 5.72162 4.8311L5.71922 4.8335ZM23.52 2.3999H23.4C22.8504 2.3999 22.3776 2.3999 21.96 2.4983C21.3136 2.65278 20.7225 2.98321 20.2523 3.453C19.7821 3.92278 19.4511 4.51357 19.296 5.1599C19.2 5.5775 19.2 6.0479 19.2 6.5999V12.5999C19.2 13.1495 19.2 13.6223 19.2984 14.0399C19.4529 14.6864 19.7833 15.2775 20.2531 15.7477C20.7229 16.2179 21.3137 16.5488 21.96 16.7039C22.3776 16.7999 22.848 16.7999 23.4 16.7999H29.4C29.9496 16.7999 30.4224 16.7999 30.84 16.7015C31.4865 16.547 32.0776 16.2166 32.5478 15.7468C33.018 15.277 33.349 14.6862 33.504 14.0399C33.6 13.6223 33.6 13.1519 33.6 12.5999V6.5999C33.6 6.0503 33.6 5.5775 33.5016 5.1599C33.3471 4.51343 33.0167 3.92234 32.5469 3.45214C32.0771 2.98193 31.4864 2.65096 30.84 2.4959C30.4224 2.3999 29.952 2.3999 29.4 2.3999H23.52ZM22.5192 4.8335C22.6224 4.8095 22.7832 4.7999 23.52 4.7999H29.28C30.0192 4.7999 30.1776 4.8071 30.2808 4.8335C30.4964 4.88506 30.6935 4.99532 30.8503 5.15207C31.007 5.30881 31.1173 5.50591 31.1688 5.7215C31.1928 5.8223 31.2 5.9807 31.2 6.7199V12.4799C31.2 13.2191 31.1904 13.3775 31.1664 13.4807C31.1149 13.6963 31.0046 13.8934 30.8479 14.0501C30.6911 14.2069 30.494 14.3171 30.2784 14.3687C30.1776 14.3927 30.0192 14.3999 29.28 14.3999H23.52C22.7808 14.3999 22.6224 14.3927 22.5192 14.3663C22.3036 14.3147 22.1065 14.2045 21.9498 14.0477C21.793 13.891 21.6828 13.6939 21.6312 13.4783C21.6096 13.3799 21.6 13.2215 21.6 12.4799V6.7199C21.6 5.9807 21.6072 5.8223 21.6336 5.7191C21.6852 5.50351 21.7954 5.30641 21.9522 5.14967C22.1089 4.99292 22.306 4.88266 22.5216 4.8311L22.5192 4.8335ZM6.60002 19.1999H12.6C13.1496 19.1999 13.6224 19.1999 14.04 19.2983C14.6865 19.4528 15.2776 19.7832 15.7478 20.253C16.218 20.7228 16.549 21.3136 16.704 21.9599C16.8 22.3775 16.8 22.8479 16.8 23.3999V29.3999C16.8 29.9495 16.8 30.4223 16.7016 30.8399C16.5471 31.4864 16.2167 32.0775 15.7469 32.5477C15.2771 33.0179 14.6864 33.3488 14.04 33.5039C13.6224 33.5999 13.152 33.5999 12.6 33.5999H6.60002C6.05042 33.5999 5.57762 33.5999 5.16002 33.5015C4.51355 33.347 3.92246 33.0166 3.45226 32.5468C2.98205 32.077 2.65108 31.4862 2.49602 30.8399C2.40002 30.4223 2.40002 29.9519 2.40002 29.3999V23.3999C2.40002 22.8503 2.40002 22.3775 2.49842 21.9599C2.6529 21.3134 2.98334 20.7223 3.45312 20.2521C3.9229 19.7819 4.51369 19.451 5.16002 19.2959C5.57762 19.1999 6.04802 19.1999 6.60002 19.1999ZM6.72002 21.5999C5.98082 21.5999 5.82242 21.6071 5.71922 21.6335C5.50363 21.6851 5.30653 21.7953 5.14979 21.9521C4.99305 22.1088 4.88278 22.3059 4.83122 22.5215C4.80962 22.6199 4.80002 22.7783 4.80002 23.5199V29.2799C4.80002 30.0191 4.80722 30.1775 4.83362 30.2807C4.88518 30.4963 4.99544 30.6934 5.15219 30.8501C5.30893 31.0069 5.50603 31.1171 5.72162 31.1687C5.82242 31.1927 5.98082 31.1999 6.72002 31.1999H12.48C13.2192 31.1999 13.3776 31.1903 13.4808 31.1663C13.6964 31.1147 13.8935 31.0045 14.0503 30.8477C14.207 30.691 14.3173 30.4939 14.3688 30.2783C14.3928 30.1775 14.4 30.0191 14.4 29.2799V23.5199C14.4 22.7807 14.3928 22.6223 14.3664 22.5191C14.3149 22.3035 14.2046 22.1064 14.0479 21.9497C13.8911 21.7929 13.694 21.6827 13.4784 21.6311C13.38 21.6095 13.2216 21.5999 12.48 21.5999H6.72002ZM23.52 19.1999H23.4C22.8504 19.1999 22.3776 19.1999 21.96 19.2983C21.3136 19.4528 20.7225 19.7832 20.2523 20.253C19.7821 20.7228 19.4511 21.3136 19.296 21.9599C19.2 22.3775 19.2 22.8479 19.2 23.3999V29.3999C19.2 29.9495 19.2 30.4223 19.2984 30.8399C19.4529 31.4864 19.7833 32.0775 20.2531 32.5477C20.7229 33.0179 21.3137 33.3488 21.96 33.5039C22.3776 33.6023 22.8504 33.6023 23.4 33.6023H29.4C29.9496 33.6023 30.4224 33.6023 30.84 33.5039C31.4861 33.349 32.0766 33.0184 32.5464 32.5487C33.0161 32.0789 33.3468 31.4883 33.5016 30.8423C33.6 30.4247 33.6 29.9519 33.6 29.4023V23.3999C33.6 22.8503 33.6 22.3775 33.5016 21.9599C33.3471 21.3134 33.0167 20.7223 32.5469 20.2521C32.0771 19.7819 31.4864 19.451 30.84 19.2959C30.4224 19.1999 29.952 19.1999 29.4 19.1999H23.52ZM22.5192 21.6335C22.6224 21.6095 22.7832 21.5999 23.52 21.5999H29.28C30.0192 21.5999 30.1776 21.6071 30.2808 21.6335C30.4964 21.6851 30.6935 21.7953 30.8503 21.9521C31.007 22.1088 31.1173 22.3059 31.1688 22.5215C31.1928 22.6223 31.2 22.7807 31.2 23.5199V29.2799C31.2 30.0191 31.1904 30.1775 31.1664 30.2807C31.1149 30.4963 31.0046 30.6934 30.8479 30.8501C30.6911 31.0069 30.494 31.1171 30.2784 31.1687C30.1776 31.1927 30.0192 31.1999 29.28 31.1999H23.52C22.7808 31.1999 22.6224 31.1903 22.5192 31.1663C22.3036 31.1147 22.1065 31.0045 21.9498 30.8477C21.793 30.691 21.6828 30.4939 21.6312 30.2783C21.6096 30.1799 21.6 30.0215 21.6 29.2799V23.5199C21.6 22.7807 21.6072 22.6223 21.6336 22.5191C21.6852 22.3035 21.7954 22.1064 21.9522 21.9497C22.1089 21.7929 22.306 21.6827 22.5216 21.6311L22.5192 21.6335Z" fill="black"/>
<rect x="21" y="4" width="11" height="11" rx="2" fill="#31C2E4"/>
</svg>
