<svg width="32" height="28" viewBox="0 0 32 28" fill="none" xmlns="http://www.w3.org/2000/svg">
<path d="M31.3334 25.5001C31.3334 26.0084 31.1314 26.4959 30.772 26.8554C30.4126 27.2148 29.925 27.4167 29.4167 27.4167H2.58337C2.07504 27.4167 1.58753 27.2148 1.22808 26.8554C0.868641 26.4959 0.666708 26.0084 0.666708 25.5001C0.666708 24.9917 0.868641 24.5042 1.22808 24.1448C1.58753 23.7853 2.07504 23.5834 2.58337 23.5834L29.4167 23.5834C29.925 23.5834 30.4126 23.7853 30.772 24.1448C31.1314 24.5042 31.3334 24.9917 31.3334 25.5001ZM31.3334 2.50008C31.3334 3.00841 31.1314 3.49593 30.772 3.85537C30.4126 4.21482 29.925 4.41675 29.4167 4.41675L2.58337 4.41675C2.07504 4.41675 1.58753 4.21482 1.22808 3.85537C0.868641 3.49593 0.666708 3.00841 0.666708 2.50008C0.666708 1.99175 0.868641 1.50424 1.22808 1.14479C1.58753 0.785347 2.07504 0.583414 2.58337 0.583414L29.4167 0.583414C29.925 0.583414 30.4126 0.785347 30.772 1.14479C31.1314 1.50424 31.3334 1.99175 31.3334 2.50008ZM17.9167 15.9167C18.425 15.9167 18.9126 15.7148 19.272 15.3554C19.6314 14.9959 19.8334 14.5084 19.8334 14.0001C19.8334 13.4917 19.6314 13.0042 19.272 12.6448C18.9126 12.2853 18.425 12.0834 17.9167 12.0834L2.58337 12.0834C2.07504 12.0834 1.58753 12.2853 1.22808 12.6448C0.868641 13.0042 0.666708 13.4917 0.666708 14.0001C0.666708 14.5084 0.868641 14.9959 1.22808 15.3554C1.58753 15.7148 2.07504 15.9167 2.58337 15.9167L17.9167 15.9167Z" fill="black"/>
</svg>
